<?xml version="1.0" encoding="utf-8"?><svg xmlns="http://www.w3.org/2000/svg" xmlns:xlink="http://www.w3.org/1999/xlink"><symbol viewBox="0 0 478.448 478.448" id="carousel-next"><path d="M131.659 0l-31.165 32.035 213.31 207.197-213.31 207.141 31.156 32.075 246.304-239.216z"/></symbol><symbol viewBox="0 0 370.814 370.814" id="carousel-prev"><path d="M292.92 24.848L268.781 0 77.895 185.401l190.886 185.413 24.139-24.853-165.282-160.56z"/></symbol><symbol viewBox="0 0 26 26" id="checked"><path d="M.3 14c-.2-.2-.3-.5-.3-.7s.1-.5.3-.7l1.4-1.4c.4-.4 1-.4 1.4 0l.1.1 5.5 5.9c.2.2.5.2.7 0L22.8 3.3h.1c.4-.4 1-.4 1.4 0l1.4 1.4c.4.4.4 1 0 1.4l-16 16.6c-.2.2-.4.3-.7.3-.3 0-.5-.1-.7-.3L.5 14.3.3 14z"/></symbol><symbol viewBox="0 0 500 500" id="clock"><path d="M250 0C112.1 0 0 112.1 0 250c0 137.8 112.1 250 250 250s250-112.2 250-250C500 112.1 387.9 0 250 0zm0 477.4c-125.4 0-227.4-102-227.4-227.3 0-125.4 102-227.4 227.4-227.4s227.3 102 227.3 227.4c0 125.3-101.9 227.3-227.3 227.3zm0 0"/><path d="M172.9 85.5l-9.2-18.3-10.2 5.1 9.4 18.4c3.2-1.8 6.6-3.6 10-5.2zM67.3 253.7c0-3.8.4-7.5.6-11.3H42v22.7h25.9c-.2-3.8-.6-7.5-.6-11.4zM265.9 67.1V41.2h-22.7v25.9c3.8-.2 7.5-.5 11.3-.5 3.9 0 7.6.3 11.4.5zm180.8 101l-5.2-10.1-20.5 10.4c1.8 3.4 3.4 6.7 5 10.3l20.7-10.6zm-93-72.9c3.3 2 6.5 4.1 9.4 6.2l11.3-17.7-9.5-6.2-11.2 17.7zM76.3 143.3L95 156.2c2-3.3 4-6.4 6.1-9.5L82.8 134l-6.5 9.3zm255.4 281l13.8 27.4 10.1-5.1-13.8-27.2c-3.3 1.7-6.8 3.4-10.1 4.9zm70.8-55.9l23.9 16.5 6.4-9.3-23.6-16.3c-2.1 3.1-4.5 6.1-6.7 9.1zm38.8-126c.3 3.8.5 7.5.5 11.3 0 3.9-.4 7.6-.5 11.4h25.9v-22.7h-25.9zM243.2 440.5v25.9H266v-25.9c-3.8.3-7.5.5-11.3.5-4 0-7.7-.4-11.5-.5zm-108.6-5.4l9.6 6.2 16.5-25.6c-3.3-1.9-6.5-3.8-9.7-5.9l-16.4 25.3zm-72.2-84.4l5.2 10.1L92.9 348c-1.9-3.2-3.7-6.6-5.4-10l-25.1 12.7zM262.5 86.9h-15.8V260l-94.4 103.5 2.6 2.3L246.7 265h121.5v-22.4H262.5V86.9zm0 0"/></symbol><symbol viewBox="0 0 512 512" id="contacts-address"><path d="M256 0C153.755 0 70.573 83.182 70.573 185.426c0 126.888 165.939 313.167 173.004 321.035 6.636 7.391 18.222 7.378 24.846 0 7.065-7.868 173.004-194.147 173.004-321.035C441.425 83.182 358.244 0 256 0zm0 278.719c-51.442 0-93.292-41.851-93.292-93.293S204.559 92.134 256 92.134s93.291 41.851 93.291 93.293-41.85 93.292-93.291 93.292z"/></symbol><symbol viewBox="0 0 485.211 485.211" id="contacts-email"><path d="M485.211 363.906c0 10.637-2.992 20.498-7.785 29.174L324.225 221.67l151.54-132.584c5.895 9.355 9.446 20.344 9.446 32.219v242.601zM242.606 252.793l210.863-184.5c-8.653-4.737-18.397-7.642-28.908-7.642H60.651c-10.524 0-20.271 2.905-28.889 7.642l210.844 184.5zm58.787-11.162l-48.809 42.734a15.145 15.145 0 0 1-9.978 3.729c-3.57 0-7.125-1.242-9.98-3.729l-48.82-42.736L28.667 415.23c9.299 5.834 20.197 9.329 31.983 9.329h363.911c11.784 0 22.687-3.495 31.983-9.329L301.393 241.631zM9.448 89.085C3.554 98.44 0 109.429 0 121.305v242.602c0 10.637 2.978 20.498 7.789 29.174l153.183-171.44L9.448 89.085z"/></symbol><symbol viewBox="0 0 500 500" id="contacts-tel"><path fill-rule="evenodd" clip-rule="evenodd" d="M294 420c89.3-95 124.4-196.5 117.1-325.4-1.6-29.3-3.7-55.3-26.2-77.4C367.4.2 346.4-1.4 333.2.6c-4.8.7-9.3 1.8-13.6 3.1-8.8 2.4-13.1 5.6-16.8 9.8-3.7 4.2-6.8 9.7-7.9 18.8-2 15.8-2 38-.6 59.7 1.9 28.7 4.5 56.7 12 64.9 5.7 6.2 14.8 9.2 34.5 11.1-12.5 85.4-44.2 146.2-102.9 209-12.7-15.2-20.3-21-28.6-22.2-11-1.6-35.6 12-60.4 26.7-18.7 11-37 23.6-49 34.2-6.9 6.1-9.6 11.7-11 17.1-.4 1.4-.7 2.9-.8 4.4-.4 4.2.1 8.7 2.2 15.1 1.4 4.2 3.1 8.6 5.2 13 5.7 12.1 18.9 28.5 42.8 33.3 30.9 6.2 53.6-6.8 78.7-22 20.5-12.4 39.5-25.5 56.9-39.4 6.9-5.7 13.7-11.4 20.1-17.2z"/></symbol><symbol viewBox="0 0 286.387 286.387" id="customers"><path d="M143.193 143.313c25.104 0 44.629-26.037 44.629-52.99v-8.444c0-26.952-19.525-46.076-44.629-46.076-25.105 0-44.63 19.123-44.63 46.076v8.444c0 26.953 19.525 52.99 44.63 52.99zm-89.414 8.717c7.178 0 26.821-9.313 26.821-28.637v-14.319c0-19.325-14.17-28.638-26.821-28.638-12.231 0-26.82 9.313-26.82 28.638v14.319c0 19.324 20.024 28.637 26.82 28.637zm160.7 35.804c-.014-.14-.056-.273-.07-.412a34.508 34.508 0 0 0-.979-4.95c0-.015 0-.028-.014-.042-.937-3.433-2.518-6.74-4.88-9.998v-.014c-3.874-5.362-9.718-10.831-19.213-16.164-5.02-2.819-7.23-4.111-10.333-4.111-4.936 0-9.243 3.838-16.499 10.501h-.015l-6.6 6.068c-.238.225-7.354 10.278-12.682 10.278s-12.445-10.054-12.683-10.278l-6.6-6.068h-.014c-7.256-6.663-11.563-10.501-16.499-10.501-3.104 0-5.874 1.292-10.333 4.111-9.206 5.811-15.341 10.795-19.199 16.149l-.015.007c-.014.014-.014.036-.027.048-2.336 3.231-3.902 6.517-4.838 9.929a.887.887 0 0 0-.04.097 35.455 35.455 0 0 0-.966 4.901c-.014.155-.056.301-.071.455a49.623 49.623 0 0 0-.307 5.467c0 .209-.004 39.195 0 39.377 0 12.724 4.796 17.898 17.898 17.898h107.39c13.215 0 17.898-4.895 17.898-17.898.004-.182-.001-39.168-.001-39.377a50.341 50.341 0 0 0-.308-5.473zm18.285-35.804c7.177 0 26.822-9.313 26.822-28.637v-14.319c0-19.325-14.17-28.638-26.822-28.638-12.232 0-26.821 9.313-26.821 28.638v14.319c0 19.324 20.024 28.637 26.821 28.637zM20.366 171.411C3.711 180.892.006 196.008.006 205.838c0 .153-.014 17.759 0 17.898 0 12.99 4.363 17.899 17.898 17.899h35.797v-53.696l-8.949-8.949c-9.468-8.348-17.45-11.522-24.386-7.579zm33.335 16.528c.197.17 0-4.25 0 0zm232.68 17.899c0-9.831-3.706-24.947-20.36-34.427-6.936-3.943-14.918-.769-24.386 7.58l-8.949 8.949v53.696h35.797c13.535 0 17.898-4.909 17.898-17.899.014-.14 0-17.745 0-17.899zm-53.696-17.899c0-4.25-.196.17 0 0z" fill-rule="evenodd" clip-rule="evenodd"/></symbol><symbol viewBox="0 0 139.4 44.7" id="dorohovdesign"><path d="M52.2 19.5V8.1H57c3.6 0 6.1 2.1 6.1 5.7 0 3.5-2.6 5.7-6.1 5.7h-4.8zm7.9-5.7c0-1.8-1.1-3.1-3.1-3.1h-1.9v6.2H57c2 0 3.1-1.4 3.1-3.1m4.1 0c0-3.4 2.6-5.9 6.1-5.9 3.5 0 6.1 2.4 6.1 5.9 0 3.5-2.6 5.9-6.1 5.9-3.5 0-6.1-2.4-6.1-5.9m9.2 0c0-1.9-1.2-3.3-3.1-3.3-1.9 0-3.1 1.4-3.1 3.3 0 1.8 1.2 3.3 3.1 3.3 1.9 0 3.1-1.4 3.1-3.3m11 5.7l-1.9-3.8H81v3.8h-2.9V8.1h5.7c2.5 0 3.9 1.7 3.9 3.8 0 2-1.2 3-2.3 3.4l2.3 4.2h-3.3zm.3-7.6c0-.8-.6-1.2-1.4-1.2H81v2.4h2.3c.8 0 1.4-.4 1.4-1.2m4.2 1.9c0-3.4 2.6-5.9 6.1-5.9 3.5 0 6.1 2.4 6.1 5.9 0 3.5-2.6 5.9-6.1 5.9-3.5 0-6.1-2.4-6.1-5.9m9.1 0c0-1.9-1.2-3.3-3.1-3.3-1.9 0-3.1 1.4-3.1 3.3 0 1.8 1.2 3.3 3.1 3.3 1.9 0 3.1-1.4 3.1-3.3m12.4 5.7v-4.6h-4.7v4.6h-3V8.1h3v4.3h4.7V8.1h2.9v11.4zm4.6-5.7c0-3.4 2.6-5.9 6.1-5.9 3.5 0 6.1 2.4 6.1 5.9 0 3.5-2.6 5.9-6.1 5.9-3.5 0-6.1-2.4-6.1-5.9m9.2 0c0-1.9-1.2-3.3-3.1-3.3-1.9 0-3.1 1.4-3.1 3.3 0 1.8 1.2 3.3 3.1 3.3 1.9 0 3.1-1.4 3.1-3.3m7.3 5.7l-4.3-11.4h3.3l2.8 8.2 2.8-8.2h3.3l-4.2 11.4zm-79.3 17V25.1H57c3.6 0 6.1 2.1 6.1 5.7 0 3.5-2.6 5.7-6.1 5.7h-4.8zm7.9-5.7c0-1.8-1.1-3.1-3.1-3.1h-1.9v6.2H57c2 0 3.1-1.4 3.1-3.1m4.7 5.7V25.1h8.3v2.6h-5.3v1.8H73V32h-5.2v1.9h5.3v2.6zm9.6-1.6l1.5-2.2c.8.8 2.1 1.5 3.6 1.5 1 0 1.6-.4 1.6-.9 0-1.5-6.4-.3-6.4-4.7 0-1.9 1.6-3.6 4.5-3.6 1.8 0 3.4.5 4.6 1.6l-1.6 2.1c-1-.8-2.2-1.2-3.3-1.2-.8 0-1.2.3-1.2.8 0 1.4 6.4.4 6.4 4.6 0 2.3-1.7 3.8-4.7 3.8-2.2 0-3.8-.7-5-1.8m11.5-9.8h2.9v11.3h-2.9zm4.7 5.7c0-3.6 2.8-5.9 6.1-5.9 2.5 0 4.1 1.3 4.8 2.8L99.1 29c-.4-.7-1.3-1.4-2.4-1.4-1.9 0-3.2 1.4-3.2 3.3s1.3 3.3 3.2 3.3c.8 0 1.7-.3 2.1-.7v-.9h-2.6V30h5.5v4.5c-1.2 1.3-2.9 2.2-5 2.2-3.4 0-6.1-2.3-6.1-5.9m20.9 5.7l-4.8-6.6v6.6h-2.9V25.1h3l4.6 6.3v-6.3h2.9v11.4zM17.7 0H0v44.7h17.8c15 0 24.6-8.8 24.6-22.4C42.4 8.7 32.7 0 17.7 0m-.4 35.7h-8V9.5h8c9.3 0 15.7 3.7 15.7 12.7.1 7.5-5.8 13.5-15.7 13.5"/><path d="M19.1 17H17v10.6h2c4 0 6.4-2.4 6.4-5.4 0-3.7-2.6-5.2-6.3-5.2"/></symbol><symbol viewBox="0 0 500 500" id="download"><path d="M500 250C500 112.2 387.8 0 250 0S0 112.2 0 250s112.2 250 250 250 250-112.2 250-250zm-475 0C25 125.9 125.9 25 250 25s225 100.9 225 225-100.9 225-225 225S25 374.1 25 250zm0 0"/><path d="M258.9 367.5l70.2-70.3c4.9-4.9 4.9-12.7 0-17.6-4.9-4.9-12.7-4.9-17.6 0l-48.9 48.9V141.4c0-6.9-5.6-12.5-12.5-12.5s-12.5 5.6-12.5 12.5v187l-48.9-48.9c-4.9-4.9-12.7-4.9-17.6 0-4.9 4.9-4.9 12.7 0 17.6l70.3 70.2c2.4 2.4 5.6 3.7 8.9 3.7 3 0 6.1-1.1 8.6-3.5zm0 0"/></symbol><symbol viewBox="0 0 500 476.4" id="favorite"><path d="M21 189.3L173.7 162l72.6-139.3L323 162l158 27.3L368.3 298 395 460.7l-144-73.4-144 73.4L133 302z"/><path fill="#4BB37D" d="M499.4 181.1c-1.5-4.5-5.3-7.7-9.9-8.3l-157.8-22.9-70.5-143c-2-4.2-6.4-6.9-11-6.9s-9 2.7-11 6.8l-70.6 142.9-157.7 23c-4.7.7-8.5 3.9-9.9 8.4-1.4 4.5-.3 9.3 3.1 12.6L118.3 305l-27 157c-.8 4.6 1.1 9.2 4.9 12 2.1 1.5 4.6 2.3 7.2 2.3 2 0 3.9-.5 5.7-1.4l141.1-74.2 141.1 74.2c1.8.9 3.8 1.4 5.7 1.4 2.6 0 5.1-.8 7.2-2.3 3.8-2.8 5.7-7.4 4.9-12l-26.9-157.1 114.1-111.3c3.3-3.2 4.5-8.1 3.1-12.5zM143.5 302.7c.7-4-.6-8-3.5-10.9L39 193.4l139.5-20.3c4-.6 7.4-3.1 9.2-6.7L250.2 40l62.4 126.4c1.8 3.6 5.2 6.1 9.2 6.7l139.5 20.3-101 98.4c-2.9 2.8-4.2 6.9-3.5 10.9l23.8 139L255.9 376c-3.6-1.9-7.9-1.9-11.4 0l-124.8 65.6 23.8-138.9z"/></symbol><symbol viewBox="0 0 96.124 96.123" id="fb"><path d="M72.089.02L59.624 0C45.62 0 36.57 9.285 36.57 23.656v10.907H24.037a1.96 1.96 0 0 0-1.96 1.961v15.803a1.96 1.96 0 0 0 1.96 1.96H36.57v39.876a1.96 1.96 0 0 0 1.96 1.96h16.352a1.96 1.96 0 0 0 1.96-1.96V54.287h14.654a1.96 1.96 0 0 0 1.96-1.96l.006-15.803a1.963 1.963 0 0 0-1.961-1.961H56.842v-9.246c0-4.444 1.059-6.7 6.848-6.7l8.397-.003a1.96 1.96 0 0 0 1.959-1.96V1.98A1.96 1.96 0 0 0 72.089.02z"/></symbol><symbol viewBox="0 0 500 500" id="filter-child"><path d="M456.4 256.3c-3.7-17.8-13.7-53.4-38.5-87.6-17.6-24.3-39.5-43.5-65.2-57.2-25.8-13.8-55.4-21.9-88.3-24.3.6-5.3 1.9-12.9 4.8-21.1 6.7-19.3 18.4-32.9 34.9-40.5L292.5.3C259.7 15.4 246 44 240.2 65.8c-8.3-6.6-19.9-12.6-36.3-16.8-19.8-5-37.9-5.1-38.6-5.1v27.8c11.7 0 41.6 3.1 57.3 15.4-81 6.7-125.6 52.4-149.1 91.2C54.1 210.2 46 242 42.8 258.2c-8.3 1.6-19.2 5.4-27.9 14C6 281 1.2 293.1 1.2 307.3c0 29.6 14.7 44.1 27 50.9 5.3 3 10.7 4.8 15.1 5.8 3.6 13.6 12.4 38.5 32.2 63.5 16.9 21.2 38.3 38 63.8 50.1C170.5 492.5 207.8 500 250 500s79.4-7.4 110.5-22c25.4-11.9 46.7-28.5 63.5-49.4 20.6-25.6 29.1-51.3 32.4-64.3 4.4-1.7 9.9-4.2 15.6-7.7 17.5-10.9 26.8-25.6 26.8-42.6 0-31.6-19.9-51.6-42.4-57.7zm-15.5 84l-9 2.3-1.3 9.2c0 .3-4.8 30.7-29.1 60.5C369 452 318 472.2 250 472.2s-119.1-20.5-151.9-60.9C73.5 381 68.6 350 68.5 349.8l-1.7-11.9h-12c-.1 0-6.7-.2-13.1-3.8-8.6-4.8-12.7-13.5-12.7-26.7 0-6.7 1.7-11.6 5.3-15.2 6-6 16.7-7.3 20.4-7.3l12.6.4 1.4-12.8c0-.4 4.6-40.1 28.6-79.7 31.7-52.2 80.9-78.7 146.2-78.7 66.8 0 118 23.8 152 70.9 28.2 38.9 34.6 80.6 35.3 85.2l1.6 11.2 11.3.7c13.7.9 27.5 11.1 27.5 31.8-.2 17.8-30 26.3-30.3 26.4z"/><path d="M252.1 421.2c-9.9 0-20.1-1.2-30.4-3.6-29.8-6.9-50.9-21.5-51.8-22.1l15.9-22.8c.2.1 18.1 12.4 42.9 18 31.6 7.1 59.5.2 82.9-20.3l18.3 20.9c-22.4 19.8-48.9 29.9-77.8 29.9zM310 315.1c-13.5 0-24.5-11-24.5-24.5s11-24.5 24.5-24.5 24.5 11 24.5 24.5-11 24.5-24.5 24.5zm0-30.5c-3.3 0-6 2.7-6 6s2.7 6 6 6 6-2.7 6-6-2.7-6-6-6zm-120 30.5c-13.5 0-24.5-11-24.5-24.5s11-24.5 24.5-24.5 24.5 11 24.5 24.5-11 24.5-24.5 24.5zm0-30.5c-3.3 0-6 2.7-6 6s2.7 6 6 6 6-2.7 6-6-2.7-6-6-6z"/></symbol><symbol viewBox="0 0 500 500" id="filter-men"><path d="M433.3 323.7c-10.9-10.9-60.3-54.9-107.8-76v-57.2c6.1-6.4 17-21 17-43.5 0-20-1.5-45.3-4.6-75.3-2.7-26.5-13.7-45.9-32.7-57.9C291 4.9 272.9.5 250 .5s-41 4.4-55.3 13.4c-19 12-30 31.4-32.7 57.9-3 30-4.6 55.3-4.6 75.3 0 22.5 10.9 37 17 43.5v57.2c-47.5 21.1-97 65.1-107.8 76-10.6 10.6-11.2 22.6-11.2 24.8v65h25v-64.8c.1-.6.5-4 3.8-7.3.5-.5 55.5-53.5 107.2-73.7l8-3.1v-79.5l.1-6.3-5.1-3.7c-.5-.4-12-9.4-12-28 0-18.9 1.5-44 4.4-72.7 3.4-33.7 22.9-48.8 63.1-48.8s59.7 15 63.1 48.8c2.9 28.7 4.4 53.9 4.4 72.7 0 18.6-11.5 27.6-11.9 27.9l-5.1 3.7v85.9l8 3.1c51.8 20.2 106.7 73.2 107.2 73.7 3.3 3.3 3.8 6.9 3.8 7.4v64.7h25v-65c.1-2.4-.4-14.3-11.1-24.9z"/><path d="M289.5 272.6l.8-4.9-24.6-4.3-.9 4.9c-.1.7-3.4 18-17.3 18.2-2.5 0-4.4-.4-6-1.3-5.5-3-7.4-12.2-7.6-15.5l-.3-5-24.9 1.3.3 5c.1 2 1.4 19.5 13.6 31l-11.8 170.5 39.5 35 36.6-34.6-12.4-172.1c8.9-8.3 13.5-19.8 15-28.2zm-52.9 189.5L247 311.5h.8c.8 0 1.5 0 2.3-.1l11 151.6-11.4 10.7-13.1-11.6z"/></symbol><symbol viewBox="0 0 634.2 500" id="filter-parodists"><path d="M323.1 500c-52.3 0-114.3-9.3-186.6-36.6-6.8-2.6-10.4-9.9-8.2-16.8.2-.5 8.2-27.6 5.3-70.8-2.7-40.2-15.6-102.9-61.7-173.8-2.6-4-2.9-9.1-.9-13.4 2.1-4.3 6.2-7.2 11-7.7 50.1-5 88.8 16.7 112.4 35.8 14.7 11.8 26.7 25.3 34.8 37.2 51.4-71 75.2-170.2 75.4-171.3 1.4-6.1 6.8-10.4 13-10.5 6.2-.1 11.8 3.9 13.5 9.9.4 1.3 33.6 115.7 77.7 172.1 15.8-25.4 40.2-46.3 71.7-60.9 28.7-13.4 59.5-19.4 75.9-19.4 4.7 0 9.1 2.4 11.6 6.4s2.8 9 .7 13.2c-1.5 3.1-3.7 7.1-6.6 12.3-21.1 38.1-77 139.4-51.7 241.6 1.7 6.9-2.1 13.9-8.8 16.2-3.2 1.1-6.6 2.3-10.2 3.6-36.7 13.1-92.2 32.9-168.3 32.9zm-165.7-58.1c160.8 57.2 266.1 20.4 323.7-.2-19.1-98.6 25.9-191.9 50.5-237.4-34.6 7.8-86.7 30.5-107.3 78.9-1.8 4.1-5.4 7.2-9.9 8.1-4.4.9-9-.4-12.2-3.6-36.8-35.5-67-108.8-83.6-155.7-14.1 42.5-40.5 107.8-81.5 156-3.5 4.1-9 5.8-14.2 4.3-5.1-1.5-8.9-5.7-9.8-11-2.4-10.4-42-67.2-105.5-73.3 39.3 67.9 50.8 127.7 53.2 167.4 2.1 30.2-.8 53.2-3.4 66.5z"/><path d="M584.4 217c-27.5 0-49.8-22.4-49.8-49.8s22.4-49.8 49.8-49.8c27.5 0 49.8 22.4 49.8 49.8S611.9 217 584.4 217zm0-72.4c-12.4 0-22.5 10.1-22.5 22.5s10.1 22.5 22.5 22.5 22.5-10.1 22.5-22.5-10.1-22.5-22.5-22.5zM320.9 99.7c-27.5 0-49.8-22.4-49.8-49.8S293.4 0 320.9 0c27.5 0 49.8 22.4 49.8 49.8s-22.3 49.9-49.8 49.9zm0-72.3c-12.4 0-22.5 10.1-22.5 22.5s10.1 22.5 22.5 22.5 22.5-10.1 22.5-22.5-10.1-22.5-22.5-22.5zM49.8 226.1C22.4 226.1 0 203.7 0 176.2s22.4-49.8 49.8-49.8c27.5 0 49.8 22.4 49.8 49.8s-22.3 49.9-49.8 49.9zm0-72.3c-12.4 0-22.5 10.1-22.5 22.5s10.1 22.5 22.5 22.5 22.5-10.1 22.5-22.5c0-12.5-10.1-22.5-22.5-22.5z"/></symbol><symbol viewBox="0 0 500 500" id="filter-vocalists"><path d="M262.3 500l-79.6-29.5-4.6-136-14.2 15.2-.7.6c-10.9 8.8-39.8 17.8-71.3-10.7-14.7-13.3-22.1-27-22-40.8.1-14.1 8.3-22.8 10.5-24.9 5.4-5.3 106.3-103.4 140.6-134.2-5.6-17.5-2.5-36 9.1-54.2 9.7-15.2 22.2-24.9 22.8-25.3l9.7-7.5 8.5 8.9c.7.7 68.7 72.1 95.9 97.9l8.5 8.1-6.8 9.6c-25.8 36.7-59.3 38.3-74.7 36.7l-32.9 32.7 1.2 253.4zm-53-48.7l25.6 9.5-.9-225.7 51.7-51.4 7.5 2.2c1.9.5 25.3 5.7 46.1-15.7-23.7-23.2-61-62-78.4-80.2-2.6 2.9-5.5 6.5-8 10.5-8.3 13.2-9.4 25.1-3.4 36.4l5.2 9.8-8.6 7.1c-21.7 17.9-145.5 138.3-146.7 139.5l-.2.2c-.4.5-2 2.5-1.9 5.7.1 3.1 1.9 9.9 13 20 19.4 17.6 32.3 11.9 35.5 9.9l57.5-61.4 6 183.6zm180.1-291L272.6 43.5 306.1 15c2.1-1.8 12.1-10.2 27.9-13.6 15.4-3.3 39.3-2.4 65.6 20.7 26 22.9 30.9 47 30.5 63.1-.5 17.5-7.2 29.6-8 30.9l-.4.7-32.3 43.5zM312.8 45.1l73.6 73.6 12.3-16.6c1-2 4.1-9.1 4.1-18.6 0-14.7-7.1-28.4-21.2-40.8-14.2-12.5-28.3-17.4-41.8-14.5-9.3 2-15.3 7.2-15.4 7.2l-.4.4-11.2 9.3z"/></symbol><symbol viewBox="0 0 500 500" id="filter-woman"><path d="M441.5 479.5c-23.3-48.3-65.2-86.3-116-105.5v-30.6c25-1.4 72-7.7 99.7-36 3.5-3.6 4.9-8.8 3.6-13.6-1.3-4.9-5.1-8.7-9.9-10.1-.4-.1-36.8-12.6-29.5-87.1 3.2-31.7 2.6-60.3-1.5-84.8-4.8-28.1-14.3-50.3-28.1-65.7-15-16.6-34.6-25.1-58.2-25.1h-2.8c-9-7.8-28.7-21.1-58.8-21.1-14.1 0-28.8 2.9-43.8 8.7l-.6.2c-11.8 4.4-33.9 12.8-52.5 37.6-21.7 28.8-32.1 71.4-30.8 126.6 1.3 55.3-7.8 82.4-15.7 95.4-6.5 10.7-12.6 12.8-14.2 13.2-5.4-.4-9.7 2.3-12.5 7-2.9 4.8-1.8 10.8 1.4 15.4 1.3 1.9 8.7 11.8 26.6 21.5 20.4 11 45.9 17.2 76.1 18.5v29.1c-50.1 19-91.8 57.3-115.4 106.3-2.1 4.4-1.8 9.6.7 13.8 2.6 4.1 7.2 6.7 12.1 6.7h357.4c4.9 0 9.5-2.5 12.1-6.7 2.4-4.1 2.7-9.3.6-13.7zm-345.9-8.2c22.9-35.1 57.1-61.7 96.8-74.5 5.9-1.9 9.9-7.4 9.9-13.5v-53.2c0-3.8-1.5-7.5-4.2-10.2-2.8-2.6-6.3-4.2-10.2-4.1-41.2.4-66-9-79.6-17 1-1 2-1.9 3.1-3 20.8-21.7 30.7-63.2 29.3-123.4-2.8-111.2 44.5-129.2 64.6-136.8l.6-.2c11.8-4.4 23.2-6.8 33.6-6.8 27.3 0 41.3 15 42.4 16.4 3 3.7 7.5 5.5 12.3 5.1 2.3-.2 4.7-.3 6.9-.3 15.3 0 27.5 5.1 37 15.7 20.1 22.2 28.4 69.1 22.4 128.5-5.9 60 12.8 90 29 104.6-21.8 12.1-52.8 16.6-76.2 16.6h-2.1c-3.8-.1-7.6 1.4-10.4 4-2.8 2.6-4.3 6.3-4.3 10.3v54.7c0 6.2 4 11.6 9.9 13.5 40.2 13 74.6 39.3 97.3 73.7H95.6v-.1z"/></symbol><symbol viewBox="0 0 512 512" id="icon-attention"><path d="M256 0C114.613 0 0 114.617 0 256c0 141.391 114.613 256 256 256s256-114.609 256-256C512 114.617 397.387 0 256 0zm0 384c-17.674 0-32-14.32-32-32 0-17.672 14.326-32 32-32s32 14.328 32 32c0 17.68-14.326 32-32 32zm32-112h-64l-16-128c0-8.836 7.164-16 16-16h64c8.836 0 16 7.164 16 16l-16 128z"/></symbol><symbol viewBox="0 0 500 500" id="icon-docs"><path d="M354.2 183.4H145.8c-4.6 0-8.3 3.7-8.3 8.3 0 4.6 3.7 8.3 8.3 8.3h208.3c4.6 0 8.3-3.7 8.3-8.3.1-4.6-3.6-8.3-8.2-8.3zm-208.4-50.1h83.3c4.6 0 8.3-3.8 8.3-8.3 0-4.6-3.7-8.3-8.3-8.3h-83.3c-4.6 0-8.3 3.8-8.3 8.3 0 4.6 3.7 8.3 8.3 8.3zM354.2 250H145.8c-4.6 0-8.3 3.7-8.3 8.3 0 4.6 3.7 8.3 8.3 8.3h208.3c4.6 0 8.3-3.7 8.3-8.3.1-4.6-3.6-8.3-8.2-8.3zm0 66.6H145.8c-4.6 0-8.3 3.8-8.3 8.3 0 4.6 3.7 8.3 8.3 8.3h208.3c4.6 0 8.3-3.7 8.3-8.3.1-4.5-3.6-8.3-8.2-8.3zm0 66.7H145.8c-4.6 0-8.3 3.7-8.3 8.3 0 4.6 3.7 8.3 8.3 8.3h208.3c4.6 0 8.3-3.7 8.3-8.3.1-4.6-3.6-8.3-8.2-8.3zm0 0"/><path d="M324.3 0H54.2v500h391.7V121.5L324.3 0zm4.8 28.4l88.2 88.2h-88.2V28.4zM70.8 483.3V16.7h241.7v116.7h116.7v350H70.8zm0 0"/></symbol><symbol viewBox="0 0 45 45" id="icon-download"><path d="M22.5 0C10.1 0 0 10.1 0 22.5S10.1 45 22.5 45 45 34.9 45 22.5 34.9 0 22.5 0zm8.1 24l-7.8 9.3c-.1.1-.2.2-.3.2-.1 0-.2-.1-.3-.2L14.4 24c-.1-.1-.1-.3-.1-.5.1-.1.2-.2.4-.2h3.6L20 12.7c.1-.7.7-1.2 1.4-1.2h2.1c.7 0 1.3.5 1.4 1.2l1.8 10.7h3.6c.2 0 .3.1.4.2.1.1.1.3-.1.4z"/></symbol><symbol viewBox="0 0 32 32" id="icon-news"><path d="M29 0H7a3 3 0 0 0-3 3v2H3a3 3 0 0 0-3 3v20a4 4 0 0 0 4 4h24a4 4 0 0 0 4-4V3a3 3 0 0 0-3-3zm1 28c0 1.102-.898 2-2 2H4c-1.103 0-2-.898-2-2V8a1 1 0 0 1 1-1h1v20a1 1 0 1 0 2 0V3a1 1 0 0 1 1-1h22c.551 0 1 .448 1 1v25z"/><path d="M19.498 13.005h8a.5.5 0 1 0 0-1h-8a.5.5 0 0 0 0 1zm0-3h8a.5.5 0 1 0 0-1h-8a.5.5 0 0 0 0 1zm0-3h8a.5.5 0 1 0 0-1h-8a.5.5 0 0 0 0 1zM16.5 27.004h-8a.5.5 0 0 0 0 1h8a.5.5 0 0 0 0-1zm0-3h-8a.5.5 0 0 0 0 1h8a.5.5 0 0 0 0-1zm0-3h-8a.5.5 0 0 0 0 1h8a.5.5 0 0 0 0-1zm11 6h-8a.5.5 0 0 0 0 1h8a.5.5 0 0 0 0-1zm0-3h-8a.5.5 0 0 0 0 1h8a.5.5 0 0 0 0-1zm0-3h-8a.5.5 0 0 0 0 1h8a.5.5 0 0 0 0-1zm0-6h-19a.5.5 0 0 0 0 1h19a.5.5 0 0 0 0-1zm0 3h-19a.5.5 0 0 0 0 1h19a.5.5 0 0 0 0-1zM9 13h7a1 1 0 0 0 1-1V5.004a1 1 0 0 0-1-1H9a1 1 0 0 0-1 1V12a1 1 0 0 0 1 1zm1-7h5v5h-5V6z"/></symbol><symbol viewBox="0 0 500 500" id="icon-report"><path d="M500 479.5H0v-459h35.4v378.7l154.9-252.7 166.1 104.9L467.1 57l30.7 17.5-129 226.6-167.1-105.6L49.2 444.2H500z"/></symbol><symbol viewBox="0 0 500 500" id="icon-settings"><path clip-path="url(#b)" d="M474 196.9l-35-5.9c-3.6-11.8-8.3-23.1-14.1-34l20.6-28.9c8.8-12.3 7.4-29.1-3.3-39.7l-31.1-31.1c-5.8-5.8-13.6-9.1-21.8-9.1-6.5 0-12.6 2-17.8 5.7l-29 20.6c-11.3-5.9-23-10.8-35.2-14.5l-5.8-34.6C299 10.6 286.2-.2 271.1-.2h-43.9c-15.1 0-27.9 10.8-30.4 25.7l-6 35.4c-11.7 3.6-23 8.4-33.9 14.3l-28.7-20.6c-5.2-3.8-11.5-5.7-17.9-5.7-8.2 0-16.1 3.2-21.8 9.1L57.3 89c-10.6 10.6-12.1 27.4-3.3 39.7L74.8 158c-5.7 11-10.3 22.3-13.8 34.1l-34.6 5.8C11.5 200.4.7 213.2.7 228.3v43.9c0 15.1 10.8 27.9 25.7 30.4l35.4 6c3.6 11.7 8.4 23 14.3 33.9l-20.5 28.6c-8.8 12.3-7.4 29.1 3.3 39.7L90 441.9c5.8 5.8 13.6 9.1 21.8 9.1 6.5 0 12.6-2 17.8-5.7l29.3-20.8c10.5 5.5 21.6 10 32.9 13.5l5.8 35c2.5 14.9 15.3 25.7 30.4 25.7h44c15.1 0 27.9-10.8 30.4-25.7l5.9-35c11.8-3.6 23.1-8.3 34-14.1l28.9 20.6c5.2 3.8 11.5 5.7 17.9 5.7 8.2 0 16-3.2 21.8-9.1L442 410c10.6-10.6 12.1-27.4 3.3-39.7l-20.6-29c5.7-10.9 10.5-22.3 14.1-34l35-5.8c14.9-2.5 25.7-15.3 25.7-30.4v-43.9c.3-15-10.5-27.8-25.5-30.3zm-2.4 74.3c0 1.4-.9 2.5-2.3 2.7l-43.8 7.3c-5.5.9-9.9 5-11.3 10.3-4 15.3-10 30-18.1 43.7-2.8 4.8-2.6 10.7.6 15.3l25.7 36.3c.7 1 .6 2.6-.3 3.5L391 421.4c-.7.7-1.5.8-2 .8-.6 0-1.1-.2-1.6-.5L351.5 396c-4.5-3.2-10.5-3.4-15.3-.6-13.7 8.1-28.3 14.2-43.7 18.1-5.4 1.4-9.5 5.8-10.3 11.3l-7.4 43.8c-.2 1.4-1.4 2.3-2.7 2.3h-43.9c-1.4 0-2.5-.9-2.7-2.3l-7.3-43.8c-.9-5.5-5-9.9-10.3-11.3-14.9-3.9-29.3-9.8-42.7-17.5-2.2-1.2-4.7-1.9-7.1-1.9-2.8 0-5.7.8-8.1 2.6l-36.5 26c-.5.3-1 .5-1.6.5-.4 0-1.3-.1-2-.8l-31.1-31.1c-.9-.9-1-2.4-.3-3.5l25.6-36c3.2-4.6 3.4-10.6.6-15.4-8.1-13.5-14.4-28.2-18.3-43.6-1.5-5.3-5.8-9.4-11.3-10.3l-44-7.5c-1.4-.2-2.3-1.4-2.3-2.7v-43.9c0-1.4.9-2.5 2.3-2.7l43.5-7.3c5.5-.9 10-5 11.4-10.4 3.9-15.3 9.8-30.1 17.8-43.8 2.8-4.8 2.5-10.7-.7-15.2l-26-36.5c-.7-1-.6-2.6.3-3.5l31.1-31.1c.7-.7 1.5-.8 2-.8.6 0 1.2.2 1.6.5l36 25.6c4.6 3.2 10.6 3.4 15.4.6 13.6-8.1 28.2-14.4 43.6-18.3 5.3-1.5 9.4-5.8 10.3-11.3l7.5-44.1c.2-1.4 1.4-2.3 2.7-2.3h43.9c1.4 0 2.5.9 2.7 2.3l7.3 43.5c.9 5.5 5 10 10.4 11.4 15.7 4 30.7 10.1 44.7 18.3 4.8 2.8 10.7 2.6 15.3-.6l36-25.8c.5-.3 1-.5 1.6-.5.4 0 1.3.1 2 .8l31.1 31.1c.9.9 1 2.4.3 3.5L397.2 148c-3.2 4.5-3.4 10.5-.6 15.3 8.1 13.7 14.2 28.3 18.1 43.7 1.4 5.4 5.8 9.5 11.3 10.3l43.8 7.4c1.4.2 2.3 1.4 2.3 2.7v43.9h-.5zm0 0"/><path d="M250.2 141.5c-59.4 0-107.7 48.3-107.7 107.7 0 59.4 48.3 107.7 107.7 107.7 59.4 0 107.7-48.3 107.7-107.7-.1-59.4-48.3-107.7-107.7-107.7zm0 187.2c-43.9 0-79.5-35.6-79.5-79.5s35.6-79.5 79.5-79.5 79.5 35.7 79.5 79.5c0 43.9-35.7 79.5-79.5 79.5zm0 0"/></symbol><symbol viewBox="0 0 97.395 97.395" id="inst"><path d="M12.501 0h72.393c6.875 0 12.5 5.09 12.5 12.5v72.395c0 7.41-5.625 12.5-12.5 12.5H12.501C5.624 97.395 0 92.305 0 84.895V12.5C0 5.09 5.624 0 12.501 0zm58.447 10.821a4.395 4.395 0 0 0-4.383 4.385v10.495a4.396 4.396 0 0 0 4.383 4.385h11.008a4.398 4.398 0 0 0 4.385-4.385V15.206a4.397 4.397 0 0 0-4.385-4.385H70.948zm15.439 30.367h-8.572a28.486 28.486 0 0 1 1.25 8.355c0 16.2-13.556 29.332-30.275 29.332-16.718 0-30.272-13.132-30.272-29.332 0-2.904.438-5.708 1.25-8.355h-8.945v41.141a3.884 3.884 0 0 0 3.872 3.872h67.822a3.883 3.883 0 0 0 3.872-3.872V41.188h-.002zM48.789 29.533c-10.802 0-19.56 8.485-19.56 18.953s8.758 18.953 19.56 18.953c10.803 0 19.562-8.485 19.562-18.953s-8.758-18.953-19.562-18.953z"/></symbol><symbol viewBox="0 0 500 500" id="ison-favorite"><path d="M500 193.9L334.4 159 250 12.2l-84.4 146.7L0 193.9l113.4 125.6-17.9 168.3L250 418.7l154.5 69.1-17.9-168.3L500 193.9zM250 384.6l-117.8 52.7L145.8 309l-86.5-95.8 126.3-26.7L250 74.6l64.4 111.9 126.3 26.7-86.5 95.8 13.7 128.4L250 384.6zm0 0"/></symbol><symbol viewBox="0 0 54 54" id="map-location"><path d="M26.7 0C16 .4 7.1 8.8 6.1 19.4c-.2 2.1-.1 4.2.3 6.2 0 0 0 .2.1.7.3 1.5.8 2.9 1.5 4.3 2.2 5.1 7.2 13.7 18.4 23 .7.6 1.7.6 2.4 0C40 44.3 45 35.7 47.2 30.6c.6-1.4 1.1-2.8 1.5-4.3.1-.4.1-.7.1-.7.3-1.3.4-2.7.4-4.1C49 9.4 39-.4 26.7 0zm.8 32.3c-5.8 0-10.5-4.7-10.5-10.5s4.7-10.5 10.5-10.5S38 16 38 21.8s-4.7 10.5-10.5 10.5z"/></symbol><symbol viewBox="0 0 371.23 371.23" id="modal-close"><path d="M371.23 21.213L350.018 0 185.615 164.402 21.213 0 0 21.213l164.402 164.402L0 350.018l21.213 21.212 164.402-164.402L350.018 371.23l21.212-21.212-164.402-164.403z"/></symbol><symbol viewBox="0 0 95.481 95.481" id="ok"><path d="M43.041 67.254c-7.402-.772-14.076-2.595-19.79-7.064-.709-.556-1.441-1.092-2.088-1.713-2.501-2.402-2.753-5.153-.774-7.988 1.693-2.426 4.535-3.075 7.489-1.682.572.27 1.117.607 1.639.969 10.649 7.317 25.278 7.519 35.967.329 1.059-.812 2.191-1.474 3.503-1.812 2.551-.655 4.93.282 6.299 2.514 1.564 2.549 1.544 5.037-.383 7.016-2.956 3.034-6.511 5.229-10.461 6.761-3.735 1.448-7.826 2.177-11.875 2.661.611.665.899.992 1.281 1.376 5.498 5.524 11.02 11.025 16.5 16.566 1.867 1.888 2.257 4.229 1.229 6.425-1.124 2.4-3.64 3.979-6.107 3.81-1.563-.108-2.782-.886-3.865-1.977-4.149-4.175-8.376-8.273-12.441-12.527-1.183-1.237-1.752-1.003-2.796.071-4.174 4.297-8.416 8.528-12.683 12.735-1.916 1.889-4.196 2.229-6.418 1.15-2.362-1.145-3.865-3.556-3.749-5.979.08-1.639.886-2.891 2.011-4.014 5.441-5.433 10.867-10.88 16.295-16.322.359-.362.694-.746 1.217-1.305z"/><path d="M47.55 48.329c-13.205-.045-24.033-10.992-23.956-24.218C23.67 10.739 34.505-.037 47.84 0c13.362.036 24.087 10.967 24.02 24.478-.068 13.199-10.971 23.897-24.31 23.851zm12.001-24.186c-.023-6.567-5.253-11.795-11.807-11.801-6.609-.007-11.886 5.316-11.835 11.943.049 6.542 5.324 11.733 11.896 11.709 6.552-.023 11.768-5.285 11.746-11.851z"/></symbol><symbol viewBox="51 -52.2 477.2 477.2" id="owl-next"><path d="M167.6 401.9c-5.3 5.3-5.3 13.8 0 19.1 2.6 2.7 6.1 4 9.5 4s6.9-1.4 9.5-4l225.1-225c5.3-5.3 5.3-13.8 0-19.1L186.6-48.2c-5.3-5.3-13.8-5.3-19.1 0s-5.3 13.8 0 19.1L383 186.4 167.6 401.9z"/></symbol><symbol viewBox="0 0 477.175 477.175" id="owl-prev"><path d="M145.188 238.575l215.5-215.5c5.3-5.3 5.3-13.8 0-19.1s-13.8-5.3-19.1 0l-225.1 225.1c-5.3 5.3-5.3 13.8 0 19.1l225.1 225c2.6 2.6 6.1 4 9.5 4s6.9-1.3 9.5-4c5.3-5.3 5.3-13.8 0-19.1l-215.4-215.5z"/></symbol><symbol viewBox="0 0 490.034 490.034" id="pass-hide"><path d="M435.667 54.311c-7-7.1-18.4-7-25.5 0l-64 64c-79.3-36-163.9-27.2-244.6 25.5-60.1 39.2-96.6 88.5-98.1 90.6-4.8 6.6-4.6 15.6.5 22 34.2 42 70 74.7 106.6 97.5l-56.3 56.3c-7 7-7 18.4 0 25.5 3.5 3.5 8.1 5.3 12.7 5.3s9.2-1.8 12.7-5.3l356-355.9c7-7 7-18.4 0-25.5zm-235.2 209.7c-2.6-5.9-3.9-12.3-3.9-19 0-12.9 5-25.1 14.2-34.3 14.4-14.4 35.7-17.8 53.3-10.3l-63.6 63.6zm90.2-90.1c-32.7-21-76.8-17.2-105.3 11.3-16 16-24.7 37.2-24.7 59.7 0 16.4 4.7 32.1 13.4 45.6l-37.1 37.1c-32.5-18.8-64.5-46.6-95.6-82.9 13.3-15.6 41.4-45.7 79.9-70.8 66.6-43.4 132.9-52.8 197.5-28.1l-28.1 28.1zm195.4 59.7c-24.7-30.4-50.3-56-76.3-76.3-7.9-6.1-19.2-4.7-25.4 3.1-6.1 7.8-4.7 19.1 3.1 25.3 20.6 16.1 41.2 36.1 61.2 59.5-11.8 13.8-34.8 38.6-66 61.3-60.1 43.7-120.8 59.5-180.3 46.9-9.7-2.1-19.3 4.2-21.3 13.9-2.1 9.7 4.2 19.3 13.9 21.3 15.5 3.3 31.1 4.9 46.8 4.9 23.6 0 47.4-3.7 71.1-11.1 31.1-9.7 62-25.7 91.9-47.5 50.4-36.9 80.5-77.6 81.8-79.3 4.8-6.6 4.6-15.6-.5-22z"/></symbol><symbol viewBox="0 0 489.934 489.934" id="pass-view"><path d="M485.967 233.617c-74-91-153.9-137.2-237.7-137.2-33.2 0-66.8 7.4-100 21.9-26.1 11.5-52 27.4-76.9 47.3-42.1 33.7-66.9 67.3-67.9 68.7-4.8 6.6-4.6 15.6.5 22 73.9 91.1 153.9 137.2 237.7 137.2 33.2 0 66.8-7.4 100-21.9 26.1-11.5 52-27.4 76.9-47.3 42.1-33.7 66.9-67.3 67.9-68.7 4.8-6.6 4.6-15.6-.5-22zm-90.7 63.2c-34.8 27.7-89.6 60.7-153.6 60.7-69.1 0-136.5-37.9-200.5-112.7 10.1-11.9 28.6-31.8 53.4-51.6 34.8-27.7 89.6-60.7 153.6-60.7 69.1 0 136.5 37.9 200.5 112.7-10.1 11.9-28.6 31.9-53.4 51.6z"/><path d="M311.267 227.017c-9.9 0-18 8.1-18 18 0 26.7-21.7 48.4-48.4 48.4s-48.4-21.7-48.4-48.4 21.7-48.4 48.4-48.4c9.9 0 18-8.1 18-18s-8.1-18-18-18c-46.6 0-84.4 37.9-84.4 84.4s37.8 84.4 84.4 84.4c46.6 0 84.4-37.9 84.4-84.4 0-9.9-8.1-18-18-18z"/></symbol><symbol viewBox="0 0 500 500" id="pause"><path d="M406.6 500H307V0h99.6v500zM193 0H93.4v500H193V0z"/></symbol><symbol viewBox="0 0 482.974 482.974" id="performers"><path d="M155.504 204.774c4.4 28.6 26.5 65 62.8 77.8 14.9 5.2 31.2 5.3 46.1-.1 35.7-12.9 58.5-49.2 63-77.7 4.8-.4 11.1-7.1 17.9-31.2 9.3-32.9-.6-37.8-9-37 1.6-4.5 2.8-9.1 3.6-13.5 14.2-85.3-27.8-88.2-27.8-88.2s-7-13.4-25.3-23.5c-12.3-7.3-29.4-12.9-51.9-11-7.3.3-14.2 1.8-20.7 3.9-8.3 2.8-15.9 6.9-22.8 11.7-8.4 5.3-16.4 11.9-23.4 19.4-11.1 11.4-21 26.1-25.3 44.4-3.6 13.7-2.8 28 .2 43.4.8 4.5 2 9 3.6 13.5-8.4-.8-18.3 4.1-9 37 6.9 24 13.2 30.7 18 31.1z"/><path d="M406.404 316.674c-51.1-13-92.6-42.2-92.6-42.2l-32.4 102.5-6.1 19.3-.1-.3-5.3 16.4-17.1-48.5c42-58.6-8.5-58-11.3-57.9-2.8-.1-53.3-.7-11.3 57.9l-17.1 48.5-5.3-16.4-.1.3-6.1-19.3-32.5-102.5s-41.5 29.2-92.6 42.2c-38.1 9.7-39.9 53.7-38.4 75.4 0 0 2.2 29.5 4.4 42.5 0 0 74.4 48.3 199 48.4 124.6 0 199-48.4 199-48.4 2.2-13 4.4-42.5 4.4-42.5 1.4-21.7-.4-65.7-38.5-75.4z"/></symbol><symbol viewBox="0 0 500 500" id="play"><path d="M397.1 249.3l-3.8-1.8L104.5 50.2v399.5l292.6-200.4zm21.5-38.5c16.5 11.7 24.8 24.7 24.8 39.2 0 8.3-2.8 16-8.2 23.4-3.9 5.4-9.5 10.8-16.5 15.7L125.6 489.3c-14 9.6-27.4 13-39.8 9-13.6-4.4-22.5-15.7-25.8-35-4.6-26.6-4.6-400.9 0-426.9C63.4 17.4 72.2 6 86 1.6c12.3-3.9 25.7-.5 39.7 9l292.9 200.2zM100 44.2c-1.2.2-.8.2 0 0zm.3 411.6c-1.2-.2-2.1-.4-.7.1l.7-.1z"/></symbol><symbol viewBox="0 0 500 500" id="ruble"><path d="M382.3 43.6C355.4 16.7 318.2 0 277.4 0H128.9v355.8H74.1v48.4h54.8V500h48.4v-95.8h170v-48.4h-170v-53h100.1c40.9 0 78-16.7 104.9-43.6s43.6-64 43.6-104.9v-5.8c0-40.9-16.7-78-43.6-104.9zm-4.8 110.7c0 27.5-11.3 52.5-29.4 70.7-18.2 18.2-43.2 29.4-70.7 29.4H177.3v-206h100.1c27.5 0 52.5 11.3 70.7 29.4 18.2 18.2 29.4 43.2 29.4 70.7v5.8z"/></symbol><symbol viewBox="0 0 500 500" id="scenario"><path d="M88.1 0v49.7H41.7v40h46.5v80H41.7v40h46.5v78H41.7v40h46.5v76H41.7v40h46.5V500h370.2V0H88.1zm324 454.4H131.5v-410h280.7v410zM302.8 173.1h-76.7v-62h76.7v62zm72.7 75.3H158.8v-27.3h216.7v27.3zm0 70H158.8v-27.3h216.7v27.3zm0 68.7H158.8v-27.3h216.7v27.3z"/></symbol><symbol viewBox="0 0 52.966 52.966" id="search"><path d="M51.704 51.273L36.845 35.82c3.79-3.801 6.138-9.041 6.138-14.82 0-11.58-9.42-21-21-21s-21 9.42-21 21 9.42 21 21 21c5.083 0 9.748-1.817 13.384-4.832l14.895 15.491a.998.998 0 0 0 1.414.028 1 1 0 0 0 .028-1.414zM21.983 40c-10.477 0-19-8.523-19-19s8.523-19 19-19 19 8.523 19 19-8.524 19-19 19z"/></symbol><symbol viewBox="0 0 500 500" id="services-audio"><path fill-rule="evenodd" clip-rule="evenodd" d="M483.9 0l-2.7 359.5-.5 41.4c-1.9 14-8.5 26.6-18 37.2-36.9 41.4-117.8 53.6-137.2 9.2-6.8-15.4-5.7-35.3 9.6-54.5 32.1-40.2 114-39.6 114-39.6L447 101.1c-165.8-.4-268.4 42.3-268.4 42.3L175.9 384l-.5 41.4c-1.9 14-8.5 26.6-18 37.2-36.9 41.4-117.8 53.6-137.2 9.2-6.8-15.4-5.7-35.3 9.6-54.5 32.1-40.1 114-39.6 114-39.6l-2.1-324.9c-.1.1 99.3-50 342.2-52.8z"/></symbol><symbol viewBox="0 0 500 500" id="services-screenplay"><path fill-rule="evenodd" clip-rule="evenodd" d="M270.3 464.5L414.4 318s23.4-30.1-6.4-62.3c-29.8-32.2-116.7-117-116.7-117L169.6 261.1l-13.2-13.4c8.5-8.5 13.8-20.2 13.8-33.2 0-25.8-20.9-46.7-46.7-46.7-25.8 0-46.7 20.9-46.7 46.7 0 11.9 4.5 22.8 11.8 31l4.3 4.2 145.9 144.1c.1.1 29.9 19.3 31.5 70.7zm65.1-394.1c11.5-25.9-7.9-49.2-7.9-49.2-28.3-34-70.1-16.9-70.1-16.9L105.2 157.4c6-1.8 12.3-2.8 18.8-2.8 35.2 0 63.8 28.6 63.8 63.8l147.6-148zM222.7 407.5l.2.1 31.8 38.1c.3 2.2.5 4.5.5 6.9 0 26.2-21.2 47.4-47.4 47.4s-47.4-21.2-47.4-47.4c0-1.2 0-2.4.1-3.5l29.6-40.5 15.7-21.4 17.1 20.5-.2-.2zm-28.1-114.1l100.3-99 13 13.2-100.3 99-13-13.2zm31.1 29.6L326 224l13 13.2-100.3 99-13-13.2zm28.8 30.6l100.3-99 13 13.2-100.3 99-13-13.2z"/></symbol><symbol viewBox="0 0 500 500" id="services-speakers"><path d="M136.8 259.7v24.5c0 31.1 12.7 59.4 33.3 80 20.5 20.5 48.8 33.3 80 33.3 31.1 0 59.4-12.7 80-33.3 20.5-20.5 33.3-48.8 33.3-80v-24.5H384v24.5c0 36.9-15.1 70.4-39.4 94.7-19.9 19.9-45.9 33.6-74.9 37.9v44.4s57.4 3.7 88.6 38.9H141.7c31.2-35.2 88.6-38.9 88.6-38.9v-44.4c-29-4.3-55-18-74.9-37.9-24.3-24.4-39.4-57.9-39.4-94.8v-24.5h20.8v.1zm205.6-20h-76.7v-17.2h76.7v-16.3h-76.7V189h76.7v-16.3h-76.7v-17.2h76.7v-16.3h-76.7V122h76.7V92.4C342.4 41.6 300.8 0 250 0c-50.8 0-92.4 41.6-92.4 92.4v29.5h76.7v17.2h-76.7v16.3h76.7v17.2h-76.7V189h76.7v17.2h-76.7v16.3h76.7v17.2h-76.7v44.4c0 50.8 41.6 92.4 92.4 92.4 50.8 0 92.4-41.6 92.4-92.4v-44.4z"/></symbol><symbol viewBox="0 0 500 500" id="services-video"><path fill-rule="evenodd" clip-rule="evenodd" d="M46.6 207h238.3c25.6 0 46.6 21 46.6 46.6v149.8c0 25.6-21 46.6-46.6 46.6H46.6C21 450.1 0 429.1 0 403.4V253.6C0 228 21 207 46.6 207zm375.5 68.9c-1.2-.2-2.4-.3-3.7-.3h-22c-14.3 0-26 11.7-26 26v51c0 14.3 11.7 26 26 26h22c1.2 0 2.5-.1 3.7-.3l77.9 33.9V242l-77.9 33.9zM72.6 170.4c-33.3 0-60.2-27-60.2-60.2 0-33.3 27-60.2 60.2-60.2 33.3 0 60.2 27 60.2 60.2 0 33.3-27 60.2-60.2 60.2zm0-40.2c-11 0-20-8.9-20-20 0-11 8.9-20 20-20 11 0 20 8.9 20 20-.1 11-9 20-20 20zm165.1 40.2c-33.3 0-60.2-27-60.2-60.2 0-33.3 27-60.2 60.2-60.2 33.3 0 60.2 27 60.2 60.2 0 33.3-26.9 60.2-60.2 60.2zm0-40.2c-11 0-20-8.9-20-20 0-11 8.9-20 20-20 11 0 20 8.9 20 20-.1 11-9 20-20 20z"/></symbol><symbol viewBox="0 0 430.123 430.123" id="skype"><path d="M412.164 246.198a199.284 199.284 0 0 0 2.45-31.148c0-110.215-89.342-199.555-199.56-199.555-10.576 0-20.995.871-31.141 2.458C165.534 6.581 143.842 0 120.595 0 53.996 0 .005 53.984.005 120.59c0 23.242 6.585 44.916 17.952 63.332-1.573 10.172-2.439 20.528-2.439 31.132 0 110.223 89.34 199.536 199.532 199.536 10.585 0 21.007-.816 31.152-2.417 18.398 11.35 40.072 17.949 63.314 17.949 66.617 0 120.602-53.998 120.602-120.602.005-23.251-6.576-44.92-17.954-63.322zM309.801 305.81c-8.442 12.153-20.843 21.65-37.047 28.479-16.237 6.847-35.428 10.254-57.59 10.254-26.562 0-48.554-4.648-65.913-14.034-12.305-6.721-22.313-15.737-30.007-26.98-7.71-11.252-11.619-22.271-11.619-33.015 0-6.338 2.417-11.85 7.122-16.344 4.754-4.527 10.877-6.796 18.104-6.796 5.92 0 11.005 1.783 15.145 5.316 4.109 3.532 7.556 8.667 10.375 15.443 3.379 7.85 7.049 14.412 10.954 19.648 3.881 5.171 9.343 9.488 16.417 12.867 6.996 3.388 16.307 5.082 27.958 5.082 15.945 0 28.831-3.449 38.693-10.253 9.912-6.866 14.673-15.22 14.673-25.314 0-8.051-2.567-14.445-7.831-19.43-5.312-5.05-12.172-8.896-20.685-11.579-8.546-2.711-20.02-5.586-34.399-8.615-19.308-4.214-35.456-9.119-48.533-14.752-13.094-5.654-23.522-13.383-31.251-23.146-7.745-9.859-11.607-22.113-11.607-36.627 0-13.84 4.077-26.217 12.239-36.989 8.158-10.802 19.961-19.07 35.351-24.829 15.336-5.757 33.391-8.637 54.075-8.637 16.541 0 30.849 1.914 42.96 5.722 12.078 3.836 22.146 8.898 30.196 15.25 7.999 6.338 13.885 13.023 17.613 20.038 3.725 7.036 5.601 13.908 5.601 20.614 0 6.235-2.417 11.89-7.127 16.846-4.709 4.963-10.733 7.493-17.768 7.47-6.342 0-11.317-1.463-14.767-4.56-3.36-2.996-6.889-7.766-10.706-14.414-4.825-9.276-10.604-16.503-17.324-21.672-6.543-5.073-17.338-7.714-32.359-7.682-13.898 0-25.018 2.84-33.411 8.394-8.445 5.643-12.482 12.19-12.501 19.861.014 4.807 1.396 8.86 4.177 12.326 2.824 3.498 6.753 6.529 11.803 9.084a81.825 81.825 0 0 0 15.355 6.046c5.225 1.481 13.894 3.622 25.944 6.457 15.112 3.257 28.819 6.896 41.136 10.862 12.293 3.986 22.784 8.793 31.451 14.52 8.736 5.71 15.564 12.99 20.438 21.783 4.909 8.807 7.354 19.564 7.354 32.222.019 15.242-4.227 28.95-12.689 41.084z"/></symbol><symbol viewBox="0 0 500 500" id="timing"><path d="M250.5 92.5c-112.3 0-203.7 91.4-203.7 203.7 0 112.3 91.4 203.7 203.7 203.7 112.4 0 203.7-91.5 203.7-203.7.1-112.3-91.3-203.7-203.7-203.7zm-6.7 81c-.7 10.2-3.1 86.5-3.3 94.5.6-.2 1.2-.4 1.9-.6-12.5 3.6-21.7 15.1-21.7 28.7 0 16.5 13.4 29.9 29.9 29.9s29.9-13.4 29.9-29.9c0-13.1-8.5-24.3-20.3-28.3.1 0 .3.1.4.2-.3-8-2.8-84.3-3.3-94.5-.9-14.6-12.5-14.6-13.5 0zm-1.5 93.9c.5-.1.9-.3 1.4-.4-.4.2-.9.3-1.4.4zm1.5-.4c.5-.1.9-.2 1.4-.3-.5.1-.9.2-1.4.3zm1.4-.3c.5-.1 1-.2 1.5-.2-.5.1-1 .2-1.5.2zm1.5-.2c.2 0 .5-.1.7-.1-.2.1-.4.1-.7.1zm.8-.1c.2 0 .5 0 .7-.1-.2.1-.5.1-.7.1zm.7 0c.5 0 1-.1 1.5-.1-.5 0-1 0-1.5.1zm1.6-.1h.7-.7zm.7 0h.7-.7zm.8 0c.5 0 1 0 1.5.1-.5-.1-1-.1-1.5-.1zm1.5.1c.2 0 .5 0 .7.1-.2-.1-.4-.1-.7-.1zm.8 0c.2 0 .5.1.7.1-.2 0-.5 0-.7-.1zm.7.1c.5.1 1 .1 1.4.2-.4 0-.9-.1-1.4-.2zm1.5.3c.5.1.9.2 1.4.3-.4-.2-.9-.3-1.4-.3zm1.5.3c.2.1.5.1.7.2-.2-.1-.5-.2-.7-.2zm.7.1c.2.1.4.1.7.2-.2-.1-.5-.1-.7-.2zm.7.2c.2.1.4.1.7.2-.2-.1-.5-.1-.7-.2zm.7.2c.2.1.5.1.7.2-.2 0-.5-.1-.7-.2zM67.8 93.9l-34.7 34.7c-2.4 2.4-2.4 6.2 0 8.6l22.3 22.3c2.4 2.4 6.2 2.4 8.6 0l34.7-34.7c2.4-2.4 2.4-6.2 0-8.6L76.4 93.9c-2.4-2.3-6.2-2.3-8.6 0zm364.4 0l34.7 34.7c2.4 2.4 2.4 6.2 0 8.6l-22.3 22.3c-2.4 2.4-6.2 2.4-8.6 0l-34.7-34.7c-2.4-2.4-2.4-6.2 0-8.6l22.3-22.3c2.4-2.3 6.2-2.3 8.6 0zM213.7 0h74.2c5 0 9.2 4.1 9.2 9.2v47.7c0 5-4.1 9.2-9.2 9.2h-74.2c-5 0-9.2-4.1-9.2-9.2V9.2c0-5.1 4.1-9.2 9.2-9.2zm36.8 481.5c-102.2 0-185.3-83.1-185.3-185.3 0-102.2 83.1-185.3 185.3-185.3 102.2 0 185.3 83.1 185.3 185.3 0 102.2-83.1 185.3-185.3 185.3z"/></symbol><symbol viewBox="0 0 612 612" id="tw"><path d="M612 116.258a250.714 250.714 0 0 1-72.088 19.772c25.929-15.527 45.777-40.155 55.184-69.411-24.322 14.379-51.169 24.82-79.775 30.48-22.907-24.437-55.49-39.658-91.63-39.658-69.334 0-125.551 56.217-125.551 125.513 0 9.828 1.109 19.427 3.251 28.606-104.326-5.24-196.835-55.223-258.75-131.174-10.823 18.51-16.98 40.078-16.98 63.101 0 43.559 22.181 81.993 55.835 104.479a125.556 125.556 0 0 1-56.867-15.756v1.568c0 60.806 43.291 111.554 100.693 123.104-10.517 2.83-21.607 4.398-33.08 4.398-8.107 0-15.947-.803-23.634-2.333 15.985 49.907 62.336 86.199 117.253 87.194-42.947 33.654-97.099 53.655-155.916 53.655-10.134 0-20.116-.612-29.944-1.721 55.567 35.681 121.536 56.485 192.438 56.485 230.948 0 357.188-191.291 357.188-357.188l-.421-16.253c24.666-17.593 46.005-39.697 62.794-64.861z"/></symbol><symbol viewBox="0 0 500 500" id="video-play"><path d="M0 0v500h500V0H0zm93.4 481.3H18.7v-60h74.7v60zm0-102H18.7v-60h74.7v60zm0-99.3H18.7v-60h74.7v60zm0-102H18.7v-60h74.7v60zm0-99.3H18.7v-60h74.7v60zm294 402.6h-278V18.7h278v462.6zm93.3 0H406v-60h74.7v60zm0-102H406v-60h74.7v60zm0-99.3H406v-60h74.7v60zm0-102H406v-60h74.7v60zm0-99.3H406v-60h74.7v60z"/><path d="M193.4 175.1L330 250l-136.6 73.1z"/></symbol><symbol viewBox="0 0 304.36 304.36" id="vk"><path d="M261.945 175.576c10.096 9.857 20.752 19.131 29.807 29.982 4 4.822 7.787 9.798 10.684 15.394 4.105 7.955.387 16.709-6.746 17.184l-44.34-.02c-11.436.949-20.559-3.655-28.23-11.474-6.139-6.253-11.824-12.908-17.727-19.372-2.42-2.642-4.953-5.128-7.979-7.093-6.053-3.929-11.307-2.726-14.766 3.587-3.523 6.421-4.322 13.531-4.668 20.687-.475 10.441-3.631 13.186-14.119 13.664-22.414 1.057-43.686-2.334-63.447-13.641-17.422-9.968-30.932-24.04-42.691-39.971-22.895-31.021-40.428-65.108-56.186-100.15C-2.01 76.458.584 72.22 9.295 72.07c14.465-.281 28.928-.261 43.41-.02 5.879.086 9.771 3.458 12.041 9.012 7.826 19.243 17.402 37.551 29.422 54.521 3.201 4.518 6.465 9.036 11.113 12.216 5.142 3.521 9.057 2.354 11.476-3.374 1.535-3.632 2.207-7.544 2.553-11.434 1.146-13.383 1.297-26.743-.713-40.079-1.234-8.323-5.922-13.711-14.227-15.286-4.238-.803-3.607-2.38-1.555-4.799 3.564-4.172 6.916-6.769 13.598-6.769h50.111c7.889 1.557 9.641 5.101 10.721 13.039l.043 55.663c-.086 3.073 1.535 12.192 7.07 14.226 4.43 1.448 7.35-2.096 10.008-4.905 11.998-12.734 20.561-27.783 28.211-43.366 3.395-6.852 6.314-13.968 9.143-21.078 2.096-5.276 5.385-7.872 11.328-7.757l48.229.043c1.43 0 2.877.021 4.262.258 8.127 1.385 10.354 4.881 7.844 12.817-3.955 12.451-11.65 22.827-19.174 33.251-8.043 11.129-16.645 21.877-24.621 33.072-7.328 10.223-6.746 15.376 2.357 24.255zm0 0" fill-rule="evenodd" clip-rule="evenodd"/></symbol></svg>