<?xml version="1.0" encoding="utf-8"?>
<!-- Generator: Adobe Illustrator 19.0.0, SVG Export Plug-In . SVG Version: 6.00 Build 0)  -->
<svg version="1.1" id="Слой_1" xmlns="http://www.w3.org/2000/svg" xmlns:xlink="http://www.w3.org/1999/xlink" x="0px" y="0px"
	 viewBox="0 0 500 500" enable-background="new 0 0 500 500" xml:space="preserve">
<g>
	<path d="M250,0C112.1,0,0,112.1,0,250c0,137.8,112.1,250,250,250c137.9,0,250-112.2,250-250C500,112.1,387.9,0,250,0L250,0z
		 M250,477.4c-125.4,0-227.4-102-227.4-227.3c0-125.4,102-227.4,227.4-227.4c125.4,0,227.3,102,227.3,227.4
		C477.3,375.4,375.4,477.4,250,477.4L250,477.4z M250,477.4"/>
	<path d="M172.9,85.5l-9.2-18.3l-10.2,5.1l9.4,18.4C166.1,88.9,169.5,87.1,172.9,85.5L172.9,85.5z M172.9,85.5"/>
	<path d="M67.3,253.7c0-3.8,0.4-7.5,0.6-11.3H42v22.7h25.9C67.7,261.3,67.3,257.6,67.3,253.7L67.3,253.7z M67.3,253.7"/>
	<path d="M265.9,67.1V41.2h-22.7v25.9c3.8-0.2,7.5-0.5,11.3-0.5C258.4,66.6,262.1,66.9,265.9,67.1L265.9,67.1z M265.9,67.1"/>
	<path d="M446.7,168.1l-5.2-10.1l-20.5,10.4c1.8,3.4,3.4,6.7,5,10.3L446.7,168.1z M446.7,168.1"/>
	<path d="M353.7,95.2c3.3,2,6.5,4.1,9.4,6.2l11.3-17.7l-9.5-6.2L353.7,95.2z M353.7,95.2"/>
	<path d="M76.3,143.3L95,156.2c2-3.3,4-6.4,6.1-9.5L82.8,134L76.3,143.3z M76.3,143.3"/>
	<path d="M331.7,424.3l13.8,27.4l10.1-5.1l-13.8-27.2C338.5,421.1,335,422.8,331.7,424.3L331.7,424.3z M331.7,424.3"/>
	<path d="M402.5,368.4l23.9,16.5l6.4-9.3l-23.6-16.3C407.1,362.4,404.7,365.4,402.5,368.4L402.5,368.4z M402.5,368.4"/>
	<path d="M441.3,242.4c0.3,3.8,0.5,7.5,0.5,11.3c0,3.9-0.4,7.6-0.5,11.4h25.9v-22.7H441.3z M441.3,242.4"/>
	<path d="M243.2,440.5v25.9H266v-25.9c-3.8,0.3-7.5,0.5-11.3,0.5C250.7,441,247,440.6,243.2,440.5L243.2,440.5z M243.2,440.5"/>
	<path d="M134.6,435.1l9.6,6.2l16.5-25.6c-3.3-1.9-6.5-3.8-9.7-5.9L134.6,435.1z M134.6,435.1"/>
	<path d="M62.4,350.7l5.2,10.1L92.9,348c-1.9-3.2-3.7-6.6-5.4-10L62.4,350.7z M62.4,350.7"/>
	<path d="M262.5,86.9h-15.8V260l-94.4,103.5l2.6,2.3L246.7,265h121.5v-22.4H262.5V86.9z M262.5,86.9"/>
</g>
</svg>
