<?xml version="1.0" encoding="utf-8"?>
<!-- Generator: Adobe Illustrator 19.0.0, SVG Export Plug-In . SVG Version: 6.00 Build 0)  -->
<svg version="1.1" id="Слой_1" xmlns="http://www.w3.org/2000/svg" xmlns:xlink="http://www.w3.org/1999/xlink" x="0px" y="0px"
	 viewBox="0 0 500 500" enable-background="new 0 0 500 500" xml:space="preserve">
<g>
	<path fill-rule="evenodd" clip-rule="evenodd" d="M294,420C383.3,325,418.4,223.5,411.1,94.6
		c-1.6-29.3-3.7-55.3-26.2-77.4c-17.5-17-38.5-18.6-51.7-16.6c-4.8,0.7-9.3,1.8-13.6,3.1c-8.8,2.4-13.1,5.6-16.8,9.8
		c-3.7,4.2-6.8,9.7-7.9,18.8c-2,15.8-2,38-0.6,59.7c1.9,28.7,4.5,56.7,12,64.9c5.7,6.2,14.8,9.2,34.5,11.1
		c-12.5,85.4-44.2,146.2-102.9,209c-12.7-15.2-20.3-21-28.6-22.2c-11-1.6-35.6,12-60.4,26.7c-18.7,11-37,23.6-49,34.2
		c-6.9,6.1-9.6,11.7-11,17.1c-0.4,1.4-0.7,2.9-0.8,4.4c-0.4,4.2,0.1,8.7,2.2,15.1c1.4,4.2,3.1,8.6,5.2,13
		c5.7,12.1,18.9,28.5,42.8,33.3c30.9,6.2,53.6-6.8,78.7-22c20.5-12.4,39.5-25.5,56.9-39.4C280.8,431.5,287.6,425.8,294,420L294,420z
		"/>
</g>
</svg>
