<?xml version="1.0" encoding="utf-8"?>
<!-- Generator: Adobe Illustrator 19.0.0, SVG Export Plug-In . SVG Version: 6.00 Build 0)  -->
<svg version="1.1" id="Слой_1" xmlns="http://www.w3.org/2000/svg" xmlns:xlink="http://www.w3.org/1999/xlink" x="0px" y="0px"
	 viewBox="0 0 500 500" enable-background="new 0 0 500 500" xml:space="preserve">
<g>
	<path d="M500,250C500,112.2,387.8,0,250,0S0,112.2,0,250s112.2,250,250,250S500,387.8,500,250L500,250z M25,250
		C25,125.9,125.9,25,250,25c124.1,0,225,100.9,225,225c0,124.1-100.9,225-225,225C125.9,475,25,374.1,25,250L25,250z M25,250"/>
	<path d="M258.9,367.5l70.2-70.3c4.9-4.9,4.9-12.7,0-17.6c-4.9-4.9-12.7-4.9-17.6,0l-48.9,48.9V141.4c0-6.9-5.6-12.5-12.5-12.5
		c-6.9,0-12.5,5.6-12.5,12.5v187l-48.9-48.9c-4.9-4.9-12.7-4.9-17.6,0c-4.9,4.9-4.9,12.7,0,17.6l70.3,70.2c2.4,2.4,5.6,3.7,8.9,3.7
		C253.3,371,256.4,369.9,258.9,367.5L258.9,367.5z M258.9,367.5"/>
</g>
</svg>
