<?xml version="1.0" encoding="utf-8"?>
<!-- Generator: Adobe Illustrator 19.0.0, SVG Export Plug-In . SVG Version: 6.00 Build 0)  -->
<svg version="1.1" id="Слой_1" xmlns="http://www.w3.org/2000/svg" xmlns:xlink="http://www.w3.org/1999/xlink" x="0px" y="0px"
	 viewBox="0 0 500 476.4" enable-background="new 0 0 500 476.4" xml:space="preserve">
<polygon id="XMLID_14_" points="21,189.3 173.7,162 246.3,22.7 323,162 481,189.3 368.3,298 395,460.7 251,387.3 
	107,460.7 133,302 "/>
<path id="XMLID_27_" fill="#4BB37D" d="M499.4,181.1c-1.5-4.5-5.3-7.7-9.9-8.3l-157.8-22.9L261.2,6.9c-2-4.2-6.4-6.9-11-6.9
	c-4.6,0-9,2.7-11,6.8l-70.6,142.9L10.9,172.7c-4.7,0.7-8.5,3.9-9.9,8.4c-1.4,4.5-0.3,9.3,3.1,12.6l114.2,111.3L91.3,462
	c-0.8,4.6,1.1,9.2,4.9,12c2.1,1.5,4.6,2.3,7.2,2.3c2,0,3.9-0.5,5.7-1.4l141.1-74.2l141.1,74.2c1.8,0.9,3.8,1.4,5.7,1.4
	c2.6,0,5.1-0.8,7.2-2.3c3.8-2.8,5.7-7.4,4.9-12l-26.9-157.1l114.1-111.3C499.6,190.4,500.8,185.5,499.4,181.1z M143.5,302.7
	c0.7-4-0.6-8-3.5-10.9L39,193.4l139.5-20.3c4-0.6,7.4-3.1,9.2-6.7L250.2,40l62.4,126.4c1.8,3.6,5.2,6.1,9.2,6.7l139.5,20.3
	l-101,98.4c-2.9,2.8-4.2,6.9-3.5,10.9l23.8,139L255.9,376c-3.6-1.9-7.9-1.9-11.4,0l-124.8,65.6L143.5,302.7z"/>
</svg>
