<?xml version="1.0" encoding="utf-8"?>
<!-- Generator: Adobe Illustrator 19.0.0, SVG Export Plug-In . SVG Version: 6.00 Build 0)  -->
<svg version="1.1" id="Слой_1" xmlns="http://www.w3.org/2000/svg" xmlns:xlink="http://www.w3.org/1999/xlink" x="0px" y="0px"
	 viewBox="0 0 634.2 500" enable-background="new 0 0 634.2 500" xml:space="preserve">
<path id="XMLID_2_" d="M323.1,500c-52.3,0-114.3-9.3-186.6-36.6c-6.8-2.6-10.4-9.9-8.2-16.8c0.2-0.5,8.2-27.6,5.3-70.8
	C130.9,335.6,118,272.9,71.9,202c-2.6-4-2.9-9.1-0.9-13.4c2.1-4.3,6.2-7.2,11-7.7c50.1-5,88.8,16.7,112.4,35.8
	c14.7,11.8,26.7,25.3,34.8,37.2c51.4-71,75.2-170.2,75.4-171.3c1.4-6.1,6.8-10.4,13-10.5c6.2-0.1,11.8,3.9,13.5,9.9
	c0.4,1.3,33.6,115.7,77.7,172.1c15.8-25.4,40.2-46.3,71.7-60.9c28.7-13.4,59.5-19.4,75.9-19.4c4.7,0,9.1,2.4,11.6,6.4
	c2.5,4,2.8,9,0.7,13.2c-1.5,3.1-3.7,7.1-6.6,12.3c-21.1,38.1-77,139.4-51.7,241.6c1.7,6.9-2.1,13.9-8.8,16.2
	c-3.2,1.1-6.6,2.3-10.2,3.6C454.7,480.2,399.2,500,323.1,500z M157.4,441.9c160.8,57.2,266.1,20.4,323.7-0.2
	c-19.1-98.6,25.9-191.9,50.5-237.4c-34.6,7.8-86.7,30.5-107.3,78.9c-1.8,4.1-5.4,7.2-9.9,8.1c-4.4,0.9-9-0.4-12.2-3.6
	c-36.8-35.5-67-108.8-83.6-155.7c-14.1,42.5-40.5,107.8-81.5,156c-3.5,4.1-9,5.8-14.2,4.3c-5.1-1.5-8.9-5.7-9.8-11
	c-2.4-10.4-42-67.2-105.5-73.3c39.3,67.9,50.8,127.7,53.2,167.4C162.9,405.6,160,428.6,157.4,441.9z"/>
<path id="XMLID_6_" d="M584.4,217c-27.5,0-49.8-22.4-49.8-49.8s22.4-49.8,49.8-49.8c27.5,0,49.8,22.4,49.8,49.8S611.9,217,584.4,217
	z M584.4,144.6c-12.4,0-22.5,10.1-22.5,22.5c0,12.4,10.1,22.5,22.5,22.5c12.4,0,22.5-10.1,22.5-22.5
	C606.9,154.7,596.8,144.6,584.4,144.6z"/>
<path id="XMLID_5_" d="M320.9,99.7c-27.5,0-49.8-22.4-49.8-49.8S293.4,0,320.9,0c27.5,0,49.8,22.4,49.8,49.8S348.4,99.7,320.9,99.7z
	 M320.9,27.4c-12.4,0-22.5,10.1-22.5,22.5s10.1,22.5,22.5,22.5c12.4,0,22.5-10.1,22.5-22.5S333.3,27.4,320.9,27.4z"/>
<path id="XMLID_13_" d="M49.8,226.1C22.4,226.1,0,203.7,0,176.2s22.4-49.8,49.8-49.8c27.5,0,49.8,22.4,49.8,49.8
	S77.3,226.1,49.8,226.1z M49.8,153.8c-12.4,0-22.5,10.1-22.5,22.5c0,12.4,10.1,22.5,22.5,22.5c12.4,0,22.5-10.1,22.5-22.5
	C72.3,163.8,62.2,153.8,49.8,153.8z"/>
</svg>
