<?xml version="1.0" encoding="utf-8"?>
<!-- Generator: Adobe Illustrator 19.0.0, SVG Export Plug-In . SVG Version: 6.00 Build 0)  -->
<svg version="1.1" id="Слой_1" xmlns="http://www.w3.org/2000/svg" xmlns:xlink="http://www.w3.org/1999/xlink" x="0px" y="0px"
	 viewBox="0 0 500 500" enable-background="new 0 0 500 500" xml:space="preserve">
<path id="XMLID_20_" d="M433.3,323.7L433.3,323.7c-10.9-10.9-60.3-54.9-107.8-76v-57.2c6.1-6.4,17-21,17-43.5
	c0-20-1.5-45.3-4.6-75.3c-2.7-26.5-13.7-45.9-32.7-57.9C291,4.9,272.9,0.5,250,0.5s-41,4.4-55.3,13.4c-19,12-30,31.4-32.7,57.9
	c-3,30-4.6,55.3-4.6,75.3c0,22.5,10.9,37,17,43.5v57.2c-47.5,21.1-97,65.1-107.8,76c-10.6,10.6-11.2,22.6-11.2,24.8v65h25v-64.8
	c0.1-0.6,0.5-4,3.8-7.3c0.5-0.5,55.5-53.5,107.2-73.7l8-3.1l0-79.5l0.1-6.3l-5.1-3.7c-0.5-0.4-12-9.4-12-28c0-18.9,1.5-44,4.4-72.7
	c3.4-33.7,22.9-48.8,63.1-48.8s59.7,15,63.1,48.8c2.9,28.7,4.4,53.9,4.4,72.7c0,18.6-11.5,27.6-11.9,27.9l-5.1,3.7v85.9l8,3.1
	c51.8,20.2,106.7,73.2,107.2,73.7c3.3,3.3,3.8,6.9,3.8,7.4v64.7h25v-65C444.5,346.2,444,334.3,433.3,323.7z"/>
<path id="XMLID_7_" d="M289.5,272.6l0.8-4.9l-24.6-4.3l-0.9,4.9c-0.1,0.7-3.4,18-17.3,18.2c-2.5,0-4.4-0.4-6-1.3
	c-5.5-3-7.4-12.2-7.6-15.5l-0.3-5l-24.9,1.3l0.3,5c0.1,2,1.4,19.5,13.6,31l-11.8,170.5l39.5,35l36.6-34.6l-12.4-172.1
	C283.4,292.5,288,281,289.5,272.6z M236.6,462.1L247,311.5c0.3,0,0.6,0,0.8,0c0.8,0,1.5,0,2.3-0.1l11,151.6l-11.4,10.7L236.6,462.1z
	"/>
</svg>
