<?xml version="1.0" encoding="utf-8"?>
<!-- Generator: Adobe Illustrator 19.0.0, SVG Export Plug-In . SVG Version: 6.00 Build 0)  -->
<svg version="1.1" id="Слой_1" xmlns="http://www.w3.org/2000/svg" xmlns:xlink="http://www.w3.org/1999/xlink" x="0px" y="0px"
	 viewBox="0 0 500 500" enable-background="new 0 0 500 500" xml:space="preserve">
<g id="XMLID_4_">
	<path id="XMLID_5_" d="M441.5,479.5c-23.3-48.3-65.2-86.3-116-105.5v-30.6c25-1.4,72-7.7,99.7-36
		c3.5-3.6,4.9-8.8,3.6-13.6c-1.3-4.9-5.1-8.7-9.9-10.1c-0.4-0.1-36.8-12.6-29.5-87.1c3.2-31.7,2.6-60.3-1.5-84.8
		c-4.8-28.1-14.3-50.3-28.1-65.7c-15-16.6-34.6-25.1-58.2-25.1c-1,0-1.9,0-2.8,0c-9-7.8-28.7-21.1-58.8-21.1
		c-14.1,0-28.8,2.9-43.8,8.7l-0.6,0.2c-11.8,4.4-33.9,12.8-52.5,37.6c-21.7,28.8-32.1,71.4-30.8,126.6c1.3,55.3-7.8,82.4-15.7,95.4
		c-6.5,10.7-12.6,12.8-14.2,13.2c-5.4-0.4-9.7,2.3-12.5,7c-2.9,4.8-1.8,10.8,1.4,15.4c1.3,1.9,8.7,11.8,26.6,21.5
		c20.4,11,45.9,17.2,76.1,18.5v29.1c-50.1,19-91.8,57.3-115.4,106.3c-2.1,4.4-1.8,9.6,0.7,13.8c2.6,4.1,7.2,6.7,12.1,6.7h357.4
		c4.9,0,9.5-2.5,12.1-6.7C443.3,489.1,443.6,483.9,441.5,479.5z M95.6,471.3c22.9-35.1,57.1-61.7,96.8-74.5
		c5.9-1.9,9.9-7.4,9.9-13.5v-53.2c0-3.8-1.5-7.5-4.2-10.2c-2.8-2.6-6.3-4.2-10.2-4.1c-41.2,0.4-66-9-79.6-17c1-1,2-1.9,3.1-3
		c20.8-21.7,30.7-63.2,29.3-123.4c-2.8-111.2,44.5-129.2,64.6-136.8l0.6-0.2c11.8-4.4,23.2-6.8,33.6-6.8c27.3,0,41.3,15,42.4,16.4
		c3,3.7,7.5,5.5,12.3,5.1c2.3-0.2,4.7-0.3,6.9-0.3c15.3,0,27.5,5.1,37,15.7c20.1,22.2,28.4,69.1,22.4,128.5
		c-5.9,60,12.8,90,29,104.6c-21.8,12.1-52.8,16.6-76.2,16.6c-1.3,0-2,0-2.1,0c-3.8-0.1-7.6,1.4-10.4,4c-2.8,2.6-4.3,6.3-4.3,10.3
		v54.7c0,6.2,4,11.6,9.9,13.5c40.2,13,74.6,39.3,97.3,73.7H95.6V471.3z"/>
</g>
</svg>
