<?xml version="1.0" encoding="utf-8"?>
<!-- Generator: Adobe Illustrator 19.0.0, SVG Export Plug-In . SVG Version: 6.00 Build 0)  -->
<svg version="1.1" id="Слой_1" xmlns="http://www.w3.org/2000/svg" xmlns:xlink="http://www.w3.org/1999/xlink" x="0px" y="0px"
	 viewBox="0 0 500 500" enable-background="new 0 0 500 500" xml:space="preserve">
<path id="XMLID_17_" d="M456.4,256.3c-3.7-17.8-13.7-53.4-38.5-87.6c-17.6-24.3-39.5-43.5-65.2-57.2c-25.8-13.8-55.4-21.9-88.3-24.3
	c0.6-5.3,1.9-12.9,4.8-21.1c6.7-19.3,18.4-32.9,34.9-40.5L292.5,0.3c-32.8,15.1-46.5,43.7-52.3,65.5c-8.3-6.6-19.9-12.6-36.3-16.8
	c-19.8-5-37.9-5.1-38.6-5.1v27.8c11.7,0,41.6,3.1,57.3,15.4c-81,6.7-125.6,52.4-149.1,91.2c-19.4,31.9-27.5,63.7-30.7,79.9
	c-8.3,1.6-19.2,5.4-27.9,14c-8.9,8.8-13.7,20.9-13.7,35.1c0,29.6,14.7,44.1,27,50.9c5.3,3,10.7,4.8,15.1,5.8
	c3.6,13.6,12.4,38.5,32.2,63.5c16.9,21.2,38.3,38,63.8,50.1C170.5,492.5,207.8,500,250,500c42.2,0,79.4-7.4,110.5-22
	c25.4-11.9,46.7-28.5,63.5-49.4c20.6-25.6,29.1-51.3,32.4-64.3c4.4-1.7,9.9-4.2,15.6-7.7c17.5-10.9,26.8-25.6,26.8-42.6
	C498.8,282.4,478.9,262.4,456.4,256.3z M440.9,340.3l-9,2.3l-1.3,9.2c0,0.3-4.8,30.7-29.1,60.5C369,452,318,472.2,250,472.2
	c-68,0-119.1-20.5-151.9-60.9C73.5,381,68.6,350,68.5,349.8l-1.7-11.9H54.8c-0.1,0-6.7-0.2-13.1-3.8c-8.6-4.8-12.7-13.5-12.7-26.7
	c0-6.7,1.7-11.6,5.3-15.2c6-6,16.7-7.3,20.4-7.3l12.6,0.4l1.4-12.8c0-0.4,4.6-40.1,28.6-79.7c31.7-52.2,80.9-78.7,146.2-78.7
	c66.8,0,118,23.8,152,70.9c28.2,38.9,34.6,80.6,35.3,85.2l1.6,11.2l11.3,0.7c13.7,0.9,27.5,11.1,27.5,31.8
	C471,331.7,441.2,340.2,440.9,340.3z"/>
<path id="XMLID_4_" d="M252.1,421.2c-9.9,0-20.1-1.2-30.4-3.6c-29.8-6.9-50.9-21.5-51.8-22.1l15.9-22.8c0.2,0.1,18.1,12.4,42.9,18
	c31.6,7.1,59.5,0.2,82.9-20.3l18.3,20.9C307.5,411.1,281,421.2,252.1,421.2z"/>
<path id="XMLID_1_" d="M310,315.1c-13.5,0-24.5-11-24.5-24.5c0-13.5,11-24.5,24.5-24.5c13.5,0,24.5,11,24.5,24.5
	C334.5,304.1,323.5,315.1,310,315.1z M310,284.6c-3.3,0-6,2.7-6,6c0,3.3,2.7,6,6,6c3.3,0,6-2.7,6-6C316,287.3,313.3,284.6,310,284.6
	z M190,315.1c-13.5,0-24.5-11-24.5-24.5c0-13.5,11-24.5,24.5-24.5c13.5,0,24.5,11,24.5,24.5C214.5,304.1,203.5,315.1,190,315.1z
	 M190,284.6c-3.3,0-6,2.7-6,6c0,3.3,2.7,6,6,6s6-2.7,6-6C196,287.3,193.3,284.6,190,284.6z"/>
</svg>
