<?xml version="1.0" encoding="utf-8"?>
<!-- Generator: Adobe Illustrator 19.0.0, SVG Export Plug-In . SVG Version: 6.00 Build 0)  -->
<svg version="1.1" id="Слой_1" xmlns="http://www.w3.org/2000/svg" xmlns:xlink="http://www.w3.org/1999/xlink" x="0px" y="0px"
	 viewBox="0 0 500 500" enable-background="new 0 0 500 500" xml:space="preserve">
<g>
	<path d="M354.2,183.4H145.8c-4.6,0-8.3,3.7-8.3,8.3c0,4.6,3.7,8.3,8.3,8.3h208.3c4.6,0,8.3-3.7,8.3-8.3
		C362.5,187.1,358.8,183.4,354.2,183.4L354.2,183.4z M354.2,183.4"/>
	<path d="M145.8,133.3h83.3c4.6,0,8.3-3.8,8.3-8.3c0-4.6-3.7-8.3-8.3-8.3h-83.3c-4.6,0-8.3,3.8-8.3,8.3
		C137.5,129.6,141.2,133.3,145.8,133.3L145.8,133.3z M145.8,133.3"/>
	<path d="M354.2,250H145.8c-4.6,0-8.3,3.7-8.3,8.3c0,4.6,3.7,8.3,8.3,8.3h208.3c4.6,0,8.3-3.7,8.3-8.3
		C362.5,253.7,358.8,250,354.2,250L354.2,250z M354.2,250"/>
	<path d="M354.2,316.6H145.8c-4.6,0-8.3,3.8-8.3,8.3c0,4.6,3.7,8.3,8.3,8.3h208.3c4.6,0,8.3-3.7,8.3-8.3
		C362.5,320.4,358.8,316.6,354.2,316.6L354.2,316.6z M354.2,316.6"/>
	<path d="M354.2,383.3H145.8c-4.6,0-8.3,3.7-8.3,8.3c0,4.6,3.7,8.3,8.3,8.3h208.3c4.6,0,8.3-3.7,8.3-8.3
		C362.5,387,358.8,383.3,354.2,383.3L354.2,383.3z M354.2,383.3"/>
	<path d="M324.3,0H54.2v500h391.7V121.5L324.3,0z M329.1,28.4l88.2,88.2h-88.2V28.4z M70.8,483.3V16.7h241.7v116.7h116.7v350H70.8z
		 M70.8,483.3"/>
</g>
</svg>
