<?xml version="1.0" encoding="utf-8"?>
<!-- Generator: Adobe Illustrator 19.0.0, SVG Export Plug-In . SVG Version: 6.00 Build 0)  -->
<svg version="1.1" id="Слой_1" xmlns="http://www.w3.org/2000/svg" xmlns:xlink="http://www.w3.org/1999/xlink" x="0px" y="0px"
	 viewBox="0 0 500 500" enable-background="new 0 0 500 500" xml:space="preserve">
<g>
	<g>
		<defs>
			<rect id="SVGID_1_" x="0.6" width="498.7" height="500"/>
		</defs>
		<clipPath id="SVGID_2_">
			<use xlink:href="#SVGID_1_"  overflow="visible"/>
		</clipPath>
		<path clip-path="url(#SVGID_2_)" d="M474,196.9l-35-5.9c-3.6-11.8-8.3-23.1-14.1-34l20.6-28.9c8.8-12.3,7.4-29.1-3.3-39.7
			l-31.1-31.1c-5.8-5.8-13.6-9.1-21.8-9.1c-6.5,0-12.6,2-17.8,5.7l-29,20.6c-11.3-5.9-23-10.8-35.2-14.5l-5.8-34.6
			C299,10.6,286.2-0.2,271.1-0.2h-43.9c-15.1,0-27.9,10.8-30.4,25.7l-6,35.4c-11.7,3.6-23,8.4-33.9,14.3l-28.7-20.6
			c-5.2-3.8-11.5-5.7-17.9-5.7c-8.2,0-16.1,3.2-21.8,9.1L57.3,89c-10.6,10.6-12.1,27.4-3.3,39.7L74.8,158
			C69.1,169,64.5,180.3,61,192.1l-34.6,5.8c-14.9,2.5-25.7,15.3-25.7,30.4v43.9c0,15.1,10.8,27.9,25.7,30.4l35.4,6
			c3.6,11.7,8.4,23,14.3,33.9l-20.5,28.6c-8.8,12.3-7.4,29.1,3.3,39.7L90,441.9c5.8,5.8,13.6,9.1,21.8,9.1c6.5,0,12.6-2,17.8-5.7
			l29.3-20.8c10.5,5.5,21.6,10,32.9,13.5l5.8,35c2.5,14.9,15.3,25.7,30.4,25.7h44c15.1,0,27.9-10.8,30.4-25.7l5.9-35
			c11.8-3.6,23.1-8.3,34-14.1l28.9,20.6c5.2,3.8,11.5,5.7,17.9,5.7c8.2,0,16-3.2,21.8-9.1l31.1-31.1c10.6-10.6,12.1-27.4,3.3-39.7
			l-20.6-29c5.7-10.9,10.5-22.3,14.1-34l35-5.8c14.9-2.5,25.7-15.3,25.7-30.4v-43.9C499.8,212.2,489,199.4,474,196.9L474,196.9z
			 M471.6,271.2c0,1.4-0.9,2.5-2.3,2.7l-43.8,7.3c-5.5,0.9-9.9,5-11.3,10.3c-4,15.3-10,30-18.1,43.7c-2.8,4.8-2.6,10.7,0.6,15.3
			l25.7,36.3c0.7,1,0.6,2.6-0.3,3.5l-31.1,31.1c-0.7,0.7-1.5,0.8-2,0.8c-0.6,0-1.1-0.2-1.6-0.5L351.5,396
			c-4.5-3.2-10.5-3.4-15.3-0.6c-13.7,8.1-28.3,14.2-43.7,18.1c-5.4,1.4-9.5,5.8-10.3,11.3l-7.4,43.8c-0.2,1.4-1.4,2.3-2.7,2.3h-43.9
			c-1.4,0-2.5-0.9-2.7-2.3l-7.3-43.8c-0.9-5.5-5-9.9-10.3-11.3c-14.9-3.9-29.3-9.8-42.7-17.5c-2.2-1.2-4.7-1.9-7.1-1.9
			c-2.8,0-5.7,0.8-8.1,2.6l-36.5,26c-0.5,0.3-1,0.5-1.6,0.5c-0.4,0-1.3-0.1-2-0.8l-31.1-31.1c-0.9-0.9-1-2.4-0.3-3.5l25.6-36
			c3.2-4.6,3.4-10.6,0.6-15.4c-8.1-13.5-14.4-28.2-18.3-43.6c-1.5-5.3-5.8-9.4-11.3-10.3L31.1,275c-1.4-0.2-2.3-1.4-2.3-2.7v-43.9
			c0-1.4,0.9-2.5,2.3-2.7l43.5-7.3c5.5-0.9,10-5,11.4-10.4c3.9-15.3,9.8-30.1,17.8-43.8c2.8-4.8,2.5-10.7-0.7-15.2l-26-36.5
			c-0.7-1-0.6-2.6,0.3-3.5l31.1-31.1c0.7-0.7,1.5-0.8,2-0.8c0.6,0,1.2,0.2,1.6,0.5l36,25.6c4.6,3.2,10.6,3.4,15.4,0.6
			c13.6-8.1,28.2-14.4,43.6-18.3c5.3-1.5,9.4-5.8,10.3-11.3l7.5-44.1c0.2-1.4,1.4-2.3,2.7-2.3h43.9c1.4,0,2.5,0.9,2.7,2.3l7.3,43.5
			c0.9,5.5,5,10,10.4,11.4c15.7,4,30.7,10.1,44.7,18.3c4.8,2.8,10.7,2.6,15.3-0.6l36-25.8c0.5-0.3,1-0.5,1.6-0.5
			c0.4,0,1.3,0.1,2,0.8l31.1,31.1c0.9,0.9,1,2.4,0.3,3.5l-25.7,36.2c-3.2,4.5-3.4,10.5-0.6,15.3c8.1,13.7,14.2,28.3,18.1,43.7
			c1.4,5.4,5.8,9.5,11.3,10.3l43.8,7.4c1.4,0.2,2.3,1.4,2.3,2.7v43.9H471.6z M471.6,271.2"/>
	</g>
	<path d="M250.2,141.5c-59.4,0-107.7,48.3-107.7,107.7c0,59.4,48.3,107.7,107.7,107.7c59.4,0,107.7-48.3,107.7-107.7
		C357.8,189.8,309.6,141.5,250.2,141.5L250.2,141.5z M250.2,328.7c-43.9,0-79.5-35.6-79.5-79.5c0-43.9,35.6-79.5,79.5-79.5
		c43.9,0,79.5,35.7,79.5,79.5C329.7,293.1,294,328.7,250.2,328.7L250.2,328.7z M250.2,328.7"/>
</g>
</svg>
