<?xml version="1.0" encoding="utf-8"?>
<!-- Generator: Adobe Illustrator 19.0.0, SVG Export Plug-In . SVG Version: 6.00 Build 0)  -->
<svg version="1.1" id="Слой_1" xmlns="http://www.w3.org/2000/svg" xmlns:xlink="http://www.w3.org/1999/xlink" x="0px" y="0px"
	 viewBox="0 0 45 45" enable-background="new 0 0 45 45" xml:space="preserve">
<path d="M22.5,0C10.1,0,0,10.1,0,22.5S10.1,45,22.5,45S45,34.9,45,22.5S34.9,0,22.5,0z M30.6,24l-7.8,9.3
	c-0.1,0.1-0.2,0.2-0.3,0.2c-0.1,0-0.2-0.1-0.3-0.2L14.4,24c-0.1-0.1-0.1-0.3-0.1-0.5c0.1-0.1,0.2-0.2,0.4-0.2h3.6L20,12.7
	c0.1-0.7,0.7-1.2,1.4-1.2h2.1c0.7,0,1.3,0.5,1.4,1.2l1.8,10.7h3.6c0.2,0,0.3,0.1,0.4,0.2C30.8,23.7,30.8,23.9,30.6,24z"/>
</svg>
