<?xml version="1.0" encoding="utf-8"?>
<!-- Generator: Adobe Illustrator 19.0.0, SVG Export Plug-In . SVG Version: 6.00 Build 0)  -->
<svg version="1.1" id="Слой_1" xmlns="http://www.w3.org/2000/svg" xmlns:xlink="http://www.w3.org/1999/xlink" x="0px" y="0px"
	 viewBox="0 0 500 500" enable-background="new 0 0 500 500" xml:space="preserve">
<g>
	<path d="M397.1,249.3l-3.8-1.8L104.5,50.2v399.5L397.1,249.3L397.1,249.3z M418.6,210.8
		c16.5,11.7,24.8,24.7,24.8,39.2c0,8.3-2.8,16-8.2,23.4c-3.9,5.4-9.5,10.8-16.5,15.7L125.6,489.3c-14,9.6-27.4,13-39.8,9
		c-13.6-4.4-22.5-15.7-25.8-35c-4.6-26.6-4.6-400.9,0-426.9C63.4,17.4,72.2,6,86,1.6c12.3-3.9,25.7-0.5,39.7,9L418.6,210.8
		L418.6,210.8z M100,44.2C98.8,44.4,99.2,44.4,100,44.2L100,44.2z M100.3,455.8c-1.2-0.2-2.1-0.4-0.7,0.1L100.3,455.8L100.3,455.8z"
		/>
</g>
</svg>
