<?xml version="1.0" encoding="utf-8"?>
<!-- Generator: Adobe Illustrator 19.0.0, SVG Export Plug-In . SVG Version: 6.00 Build 0)  -->
<svg version="1.1" id="Слой_1" xmlns="http://www.w3.org/2000/svg" xmlns:xlink="http://www.w3.org/1999/xlink" x="0px" y="0px"
	 viewBox="0 0 500 500" enable-background="new 0 0 500 500" xml:space="preserve">
<path fill-rule="evenodd" clip-rule="evenodd" d="M483.9,0l-2.7,359.5l-0.5,41.4c-1.9,14-8.5,26.6-18,37.2
	c-36.9,41.4-117.8,53.6-137.2,9.2c-6.8-15.4-5.7-35.3,9.6-54.5c32.1-40.2,114-39.6,114-39.6L447,101.1
	c-165.8-0.4-268.4,42.3-268.4,42.3l-2.7,240.6l-0.5,41.4c-1.9,14-8.5,26.6-18,37.2c-36.9,41.4-117.8,53.6-137.2,9.2
	c-6.8-15.4-5.7-35.3,9.6-54.5c32.1-40.1,114-39.6,114-39.6l-2.1-324.9C141.6,52.9,241,2.8,483.9,0L483.9,0z"/>
</svg>
