<?xml version="1.0" encoding="utf-8"?>
<!-- Generator: Adobe Illustrator 19.0.0, SVG Export Plug-In . SVG Version: 6.00 Build 0)  -->
<svg version="1.1" id="Слой_1" xmlns="http://www.w3.org/2000/svg" xmlns:xlink="http://www.w3.org/1999/xlink" x="0px" y="0px"
	 viewBox="0 0 500 500" enable-background="new 0 0 500 500" xml:space="preserve">
<path d="M136.8,259.7v24.5c0,31.1,12.7,59.4,33.3,80c20.5,20.5,48.8,33.3,80,33.3c31.1,0,59.4-12.7,80-33.3
	c20.5-20.5,33.3-48.8,33.3-80v-24.5H384v24.5c0,36.9-15.1,70.4-39.4,94.7c-19.9,19.9-45.9,33.6-74.9,37.9v44.4
	c0,0,57.4,3.7,88.6,38.9H250H141.7c31.2-35.2,88.6-38.9,88.6-38.9v-44.4c-29-4.3-55-18-74.9-37.9C131.1,354.5,116,321,116,284.1
	v-24.5H136.8L136.8,259.7z M342.4,239.7h-76.7v-17.2h76.7v-16.3h-76.7V189h76.7v-16.3h-76.7v-17.2h76.7v-16.3h-76.7v-17.2h76.7V92.4
	C342.4,41.6,300.8,0,250,0c-50.8,0-92.4,41.6-92.4,92.4v29.5h76.7v17.2h-76.7v16.3h76.7v17.2h-76.7V189h76.7v17.2h-76.7v16.3h76.7
	v17.2h-76.7v44.4c0,50.8,41.6,92.4,92.4,92.4c50.8,0,92.4-41.6,92.4-92.4V239.7L342.4,239.7z"/>
</svg>
