<?xml version="1.0" encoding="utf-8"?>
<!-- Generator: Adobe Illustrator 19.0.0, SVG Export Plug-In . SVG Version: 6.00 Build 0)  -->
<svg version="1.1" id="Слой_1" xmlns="http://www.w3.org/2000/svg" xmlns:xlink="http://www.w3.org/1999/xlink" x="0px" y="0px"
	 viewBox="0 0 500 500" enable-background="new 0 0 500 500" xml:space="preserve">
<path fill-rule="evenodd" clip-rule="evenodd" d="M270.3,464.5l144.1-146.5c0,0,23.4-30.1-6.4-62.3
	c-29.8-32.2-116.7-117-116.7-117L169.6,261.1l-13.2-13.4c8.5-8.5,13.8-20.2,13.8-33.2c0-25.8-20.9-46.7-46.7-46.7
	c-25.8,0-46.7,20.9-46.7,46.7c0,11.9,4.5,22.8,11.8,31l4.3,4.2l145.9,144.1C238.9,393.9,268.7,413.1,270.3,464.5L270.3,464.5z
	 M335.4,70.4c11.5-25.9-7.9-49.2-7.9-49.2c-28.3-34-70.1-16.9-70.1-16.9L105.2,157.4c6-1.8,12.3-2.8,18.8-2.8
	c35.2,0,63.8,28.6,63.8,63.8L335.4,70.4L335.4,70.4z M222.7,407.5l0.2,0.1l31.8,38.1c0.3,2.2,0.5,4.5,0.5,6.9
	c0,26.2-21.2,47.4-47.4,47.4c-26.2,0-47.4-21.2-47.4-47.4c0-1.2,0-2.4,0.1-3.5l29.6-40.5l15.7-21.4l17.1,20.5L222.7,407.5
	L222.7,407.5z M194.6,293.4l100.3-99l13,13.2l-100.3,99L194.6,293.4L194.6,293.4z M225.7,323l100.3-99l13,13.2l-100.3,99L225.7,323
	L225.7,323z M254.5,353.6l100.3-99l13,13.2l-100.3,99L254.5,353.6L254.5,353.6z"/>
</svg>
