<?xml version="1.0" encoding="utf-8"?>
<!-- Generator: Adobe Illustrator 19.0.0, SVG Export Plug-In . SVG Version: 6.00 Build 0)  -->
<svg version="1.1" id="Слой_1" xmlns="http://www.w3.org/2000/svg" xmlns:xlink="http://www.w3.org/1999/xlink" x="0px" y="0px"
	 viewBox="0 0 500 500" enable-background="new 0 0 500 500" xml:space="preserve">
<path fill-rule="evenodd" clip-rule="evenodd" d="M46.6,207h238.3c25.6,0,46.6,21,46.6,46.6v149.8
	c0,25.6-21,46.6-46.6,46.6H46.6C21,450.1,0,429.1,0,403.4V253.6C0,228,21,207,46.6,207L46.6,207z M422.1,275.9
	c-1.2-0.2-2.4-0.3-3.7-0.3h-22c-14.3,0-26,11.7-26,26v51c0,14.3,11.7,26,26,26h22c1.2,0,2.5-0.1,3.7-0.3l77.9,33.9V242L422.1,275.9
	L422.1,275.9z M72.6,170.4c-33.3,0-60.2-27-60.2-60.2c0-33.3,27-60.2,60.2-60.2c33.3,0,60.2,27,60.2,60.2
	C132.8,143.5,105.8,170.4,72.6,170.4L72.6,170.4z M72.6,130.2c-11,0-20-8.9-20-20c0-11,8.9-20,20-20c11,0,20,8.9,20,20
	C92.5,121.2,83.6,130.2,72.6,130.2L72.6,130.2z M237.7,170.4c-33.3,0-60.2-27-60.2-60.2c0-33.3,27-60.2,60.2-60.2
	c33.3,0,60.2,27,60.2,60.2C297.9,143.5,271,170.4,237.7,170.4L237.7,170.4z M237.7,130.2c-11,0-20-8.9-20-20c0-11,8.9-20,20-20
	c11,0,20,8.9,20,20C257.6,121.2,248.7,130.2,237.7,130.2L237.7,130.2z"/>
</svg>
