<?xml version="1.0" encoding="utf-8"?>
<!-- Generator: Adobe Illustrator 19.0.0, SVG Export Plug-In . SVG Version: 6.00 Build 0)  -->
<svg version="1.1" id="Слой_1" xmlns="http://www.w3.org/2000/svg" xmlns:xlink="http://www.w3.org/1999/xlink" x="0px" y="0px"
	 viewBox="0 0 500 500" enable-background="new 0 0 500 500" xml:space="preserve">
<g>
	<path  d="M250.5,92.5c-112.3,0-203.7,91.4-203.7,203.7c0,112.3,91.4,203.7,203.7,203.7
		c112.4,0,203.7-91.5,203.7-203.7C454.3,183.9,362.9,92.5,250.5,92.5L250.5,92.5z M243.8,173.5c-0.7,10.2-3.1,86.5-3.3,94.5
		c0.6-0.2,1.2-0.4,1.9-0.6c-12.5,3.6-21.7,15.1-21.7,28.7c0,16.5,13.4,29.9,29.9,29.9s29.9-13.4,29.9-29.9
		c0-13.1-8.5-24.3-20.3-28.3c0.1,0,0.3,0.1,0.4,0.2c-0.3-8-2.8-84.3-3.3-94.5C256.4,158.9,244.8,158.9,243.8,173.5L243.8,173.5z
		 M242.3,267.4c0.5-0.1,0.9-0.3,1.4-0.4C243.3,267.2,242.8,267.3,242.3,267.4L242.3,267.4z M243.8,267c0.5-0.1,0.9-0.2,1.4-0.3
		C244.7,266.8,244.3,266.9,243.8,267L243.8,267z M245.2,266.7c0.5-0.1,1-0.2,1.5-0.2C246.2,266.6,245.7,266.7,245.2,266.7
		L245.2,266.7z M246.7,266.5c0.2,0,0.5-0.1,0.7-0.1C247.2,266.5,247,266.5,246.7,266.5L246.7,266.5z M247.5,266.4
		c0.2,0,0.5,0,0.7-0.1C248,266.4,247.7,266.4,247.5,266.4L247.5,266.4z M248.2,266.4c0.5,0,1-0.1,1.5-0.1
		C249.2,266.3,248.7,266.3,248.2,266.4L248.2,266.4z M249.8,266.3c0.2,0,0.5,0,0.7,0C250.3,266.3,250,266.3,249.8,266.3L249.8,266.3
		z M250.5,266.3c0.2,0,0.5,0,0.7,0C251,266.3,250.8,266.3,250.5,266.3L250.5,266.3z M251.3,266.3c0.5,0,1,0,1.5,0.1
		C252.3,266.3,251.8,266.3,251.3,266.3L251.3,266.3z M252.8,266.4c0.2,0,0.5,0,0.7,0.1C253.3,266.4,253.1,266.4,252.8,266.4
		L252.8,266.4z M253.6,266.4c0.2,0,0.5,0.1,0.7,0.1C254.1,266.5,253.8,266.5,253.6,266.4L253.6,266.4z M254.3,266.5
		c0.5,0.1,1,0.1,1.4,0.2C255.3,266.7,254.8,266.6,254.3,266.5L254.3,266.5z M255.8,266.8c0.5,0.1,0.9,0.2,1.4,0.3
		C256.8,266.9,256.3,266.8,255.8,266.8L255.8,266.8z M257.3,267.1c0.2,0.1,0.5,0.1,0.7,0.2C257.8,267.2,257.5,267.1,257.3,267.1
		L257.3,267.1z M258,267.2c0.2,0.1,0.4,0.1,0.7,0.2C258.5,267.3,258.2,267.3,258,267.2L258,267.2z M258.7,267.4
		c0.2,0.1,0.4,0.1,0.7,0.2C259.2,267.5,258.9,267.5,258.7,267.4L258.7,267.4z M259.4,267.6c0.2,0.1,0.5,0.1,0.7,0.2
		C259.9,267.8,259.6,267.7,259.4,267.6L259.4,267.6z M67.8,93.9l-34.7,34.7c-2.4,2.4-2.4,6.2,0,8.6l22.3,22.3c2.4,2.4,6.2,2.4,8.6,0
		l34.7-34.7c2.4-2.4,2.4-6.2,0-8.6L76.4,93.9C74,91.6,70.2,91.6,67.8,93.9L67.8,93.9z M432.2,93.9l34.7,34.7c2.4,2.4,2.4,6.2,0,8.6
		l-22.3,22.3c-2.4,2.4-6.2,2.4-8.6,0l-34.7-34.7c-2.4-2.4-2.4-6.2,0-8.6l22.3-22.3C426,91.6,429.8,91.6,432.2,93.9L432.2,93.9z
		 M213.7,0h74.2c5,0,9.2,4.1,9.2,9.2v47.7c0,5-4.1,9.2-9.2,9.2h-74.2c-5,0-9.2-4.1-9.2-9.2V9.2C204.5,4.1,208.6,0,213.7,0L213.7,0z
		 M250.5,481.5c-102.2,0-185.3-83.1-185.3-185.3c0-102.2,83.1-185.3,185.3-185.3c102.2,0,185.3,83.1,185.3,185.3
		C435.8,398.4,352.7,481.5,250.5,481.5L250.5,481.5z"/>
</g>
</svg>
