<?xml version="1.0" encoding="utf-8"?>
<!-- Generator: Adobe Illustrator 19.0.0, SVG Export Plug-In . SVG Version: 6.00 Build 0)  -->
<svg version="1.1" id="Слой_1" xmlns="http://www.w3.org/2000/svg" xmlns:xlink="http://www.w3.org/1999/xlink" x="0px" y="0px"
	 viewBox="0 0 500 500" enable-background="new 0 0 500 500" xml:space="preserve">
<path id="XMLID_46_" d="M0,0v500h500V0H0z M93.4,481.3H18.7v-60h74.7V481.3z M93.4,379.3H18.7v-60h74.7V379.3z
	 M93.4,280H18.7v-60h74.7V280z M93.4,178H18.7v-60h74.7V178z M93.4,78.7H18.7v-60h74.7V78.7z M387.4,481.3h-278V18.7h278V481.3z
	 M480.7,481.3H406v-60h74.7V481.3z M480.7,379.3H406v-60h74.7V379.3z M480.7,280H406v-60h74.7V280z M480.7,178H406v-60h74.7V178z
	 M480.7,78.7H406v-60h74.7V78.7z"/>
<polygon id="XMLID_29_" points="193.4,175.1 330,250 193.4,323.1 "/>
</svg>
